<svg id="Layer_1" data-name="Layer 1" xmlns="http://www.w3.org/2000/svg" viewBox="0 0 1080 1080"><defs><style>.cls-1{fill:#fede4f;}.cls-2{fill:#59c2aa;}</style></defs><title>Artboard 1</title><path class="cls-1" d="M538.8,755.75c-11.45,15.33-20.29,28.58-30.57,40.6-18.05,21.09-34.87,43.95-56,61.58-49.92,41.7-112.34,34.23-145.92-21-21.66-35.64-37.85-76.49-47.55-117.14-28.23-118.4-30.08-238.67-19.34-359.86,7-79.29,52.3-121.22,123.37-140.49,115.76-31.4,232.35-32.31,348.28-.68,24.24,6.62,47.73,18.14,69.64,30.76,41.85,24.11,53,66,58.42,110.29,12.6,103,8.45,205.73-7,307.89-8.43,55.75-20.73,111.1-51.55,160-40.74,64.7-103.2,75.07-160.4,24.19-22.31-19.85-40-44.9-59.58-67.8C553.76,776,547.65,767.28,538.8,755.75Zm244-285.63c-.89-17.59-1.58-50.92-4.47-84.05-6-68.67-20.62-89.35-80.56-105.69q-160.07-43.6-320.53,1.53c-47.42,13.38-71.6,41.36-76.07,91.74-10.27,115.89-5.54,230.56,22.1,343.55,7,28.76,20.31,56.79,35.09,82.65,13.71,24,33,25.35,54.39,8a186.73,186.73,0,0,0,28.95-29.92c15.74-20.1,29.72-41.57,45.44-61.69,28.18-36.05,75.19-35.73,103.07.17,5.69,7.33,10.48,15.4,16.45,22.48,18.94,22.43,36.68,46.18,57.82,66.34,22.75,21.69,42.49,18.32,59.56-8a210.49,210.49,0,0,0,21.83-45.86C775.32,665.28,781,575.81,782.78,470.12Z"/><path class="cls-2" d="M651.21,559.43a42.91,42.91,0,0,0-29.84-24.56,13.63,13.63,0,0,0-3.07-.61h-.12l-.37-.37c-.12.25-.37.37-.37.62C602.83,553.05,588.83,572,575,591.11c-.25.25-.37.49-.62.74-7.49,10.56-15.1,21.36-22.71,32C518.23,671.41,485.69,719.54,450.7,766c-15.35,20.38-49.36,71.7-80.55,48.13-14.74-11.3-23.21-33.89-30.58-50.22-6.63-14.86-12.15-32.17-16.94-46.66-.12-.49-1.6-.74-3.81-.86-31.31-1.47-54.27,30.21-43.59,59.55s25.3,57.84,45.31,79.32c25.66,27.63,63.85,36.84,99,22.6,33-13.51,57.46-42.49,79.32-69.62C550.89,743.61,596.69,674,645.07,606.7c.73-.86,1.47-1.84,2.08-2.7s1.35-2,2-2.94A44.11,44.11,0,0,0,651.21,559.43Z"/></svg>