<svg xmlns="http://www.w3.org/2000/svg" viewBox="0 0 1053.91 340.86"><defs><style>.cls-1{fill:#fff;}.cls-2{fill:#ffde4e;}.cls-3{fill:#00e1b9;}.cls-4{fill:#5665db;}</style></defs><title>Asset 1</title><g id="Layer_2" data-name="Layer 2"><g id="Layer_1-2" data-name="Layer 1"><rect class="cls-1" width="1053.91" height="340.86" rx="51.11"/><path class="cls-2" d="M187.78,228.42c-3.08,4.12-5.46,7.69-8.22,10.92-4.85,5.67-9.37,11.81-15,16.55-13.42,11.21-30.2,9.2-39.23-5.65a111.21,111.21,0,0,1-12.78-31.49c-7.58-31.82-8.08-64.15-5.19-96.73,1.88-21.31,14.05-32.58,33.16-37.76a175.51,175.51,0,0,1,93.61-.18,81.12,81.12,0,0,1,18.72,8.26c11.25,6.49,14.25,17.75,15.71,29.65,3.38,27.68,2.27,55.3-1.88,82.76-2.26,15-5.57,29.86-13.86,43-10.95,17.39-27.74,20.18-43.11,6.5-6-5.34-10.76-12.07-16-18.23C191.8,233.87,190.16,231.52,187.78,228.42Zm65.58-76.77c-.24-4.73-.42-13.69-1.2-22.6-1.62-18.45-5.55-24-21.66-28.41a158.52,158.52,0,0,0-86.16.41c-12.74,3.6-19.24,11.12-20.44,24.66-2.76,31.16-1.49,62,5.94,92.35,1.89,7.73,5.46,15.27,9.43,22.22,3.68,6.45,8.86,6.81,14.62,2.14a50.59,50.59,0,0,0,7.78-8c4.23-5.4,8-11.18,12.22-16.58,7.57-9.69,20.21-9.61,27.7,0,1.53,2,2.82,4.14,4.42,6,5.09,6,9.86,12.42,15.55,17.84,6.11,5.83,11.42,4.92,16-2.16a55.82,55.82,0,0,0,5.87-12.33C251.35,204.1,252.88,180.06,253.36,151.65Z"/><path class="cls-3" d="M218,175.65a11.52,11.52,0,0,0-8-6.6,3.46,3.46,0,0,0-.82-.16h0l-.1-.1c0,.06-.09.1-.09.16-3.93,5-7.69,10.07-11.42,15.22-.07.06-.1.13-.17.2-2,2.83-4.06,5.74-6.11,8.61-9,12.77-17.72,25.71-27.13,38.19-4.12,5.48-13.26,19.27-21.65,12.94-4-3-6.23-9.11-8.22-13.5-1.78-4-3.26-8.65-4.55-12.55,0-.13-.43-.19-1-.23a12,12,0,0,0-11.72,16c2.9,7.89,6.8,15.55,12.18,21.32a23.66,23.66,0,0,0,26.6,6.07c8.88-3.63,15.45-11.41,21.32-18.71,14-17.36,26.31-36.07,39.31-54.16a8.89,8.89,0,0,0,.56-.73,7.78,7.78,0,0,0,.53-.79A11.83,11.83,0,0,0,218,175.65Z"/><path class="cls-4" d="M327.52,205.4V121.55h57.16v13.82H343.62v21.06H377.3v13.82H343.62v21.34h41.06V205.4Z"/><path class="cls-4" d="M431.78,198.29c-4.43,5.37-9.8,9.13-17.45,9.13-11.13,0-19.18-7.65-19.18-17.45,0-11.4,8.32-21.06,36.63-22v-1.48c0-8.31-3.49-11.8-12.35-11.8-6.3,0-13.95,2.82-20.53,6.57l-3.22-12.48a51.49,51.49,0,0,1,25.9-7.24c19.05,0,26.43,8.45,26,25.49v22.14c0,4.7.8,5.37,5.5,5.63l-1.21,11.95c-11.81,1.34-17.31-2.28-19.59-8.46Zm0-22c-15.43,1.88-21.07,5-21.07,11.54,0,4.69,3.62,8,9.26,8a15.84,15.84,0,0,0,11.81-5.37Z"/><path class="cls-4" d="M483,207.55c-8,0-17.84-2.28-24-5.77l3.49-12.34a45,45,0,0,0,20.93,5.77c6.17,0,10.2-2.55,10.2-6.85,0-4.83-5.23-6.57-12.48-8.31-11.67-2.69-20.93-7.52-20.93-19.19s9.8-19.32,24.69-19.32c7.65,0,16.77,2,22.54,5L504,158.85c-6-3.09-13.95-5.1-19.45-5.1-5.77,0-9.26,2.15-9.26,6.17,0,4.7,5.23,6.31,12.48,8.05,11.8,2.82,21.06,7.38,21.06,19.46C508.79,199,498.86,207.55,483,207.55Z"/><path class="cls-4" d="M553.47,204.2l-3.62,9.66c-6.17,16.9-13.15,22-24.55,22a36.89,36.89,0,0,1-15.7-3.62l4.7-13c3.62,1.75,6.57,3,9.79,3,4.56,0,7-2,10.33-10.47l2.68-7.11-24.15-61h17l15.43,44.28,14.76-44.28h16.91Z"/><path class="cls-4" d="M613.85,205.4H586.48V121.55h28.45c28.57,0,45.21,16.37,45.21,41.32C660.14,188.77,643.64,205.4,613.85,205.4Zm.14-70H602.85v56.22h11.94c17.71,0,29-9.26,29-27.91C643.77,144.76,633.17,135.37,614,135.37Z"/><path class="cls-4" d="M686,177.9c.67,10.06,7.51,16.9,18.51,16.9a38.07,38.07,0,0,0,19.33-5.63l2,13.15c-5.91,3.22-14.09,5.1-22.41,5.1-19.86,0-33-12.62-33-32.34,0-20.12,13.41-33.54,31.93-33.54,16.37,0,25.49,9.93,25.49,25.09A41.22,41.22,0,0,1,726.56,177L686,177.5Zm27-9.79V167c0-8.32-3.62-13.55-11.81-13.55-8.72,0-14,7.11-14.76,14.76Z"/><path class="cls-4" d="M781.3,205.4V167.7c0-9.12-3.62-12.21-10.73-12.21a20.76,20.76,0,0,0-13.69,5.77V205.4H741.05V143.82l15.83-2.15v9.8c5.51-6,12.88-9.93,20.4-9.93,12.48,0,19.86,8.05,19.86,21.33V205.4Z"/><path class="cls-4" d="M835.51,207.42c-13.82,0-21.07-6-20.53-20.93l.94-29.12-9.66-1.07.4-10.06,9.66-3.09.27-13.69h15.3L831.62,144h17.44l-.4,13h-18l-.81,28.58c-.13,5.77,2.82,8.45,8.19,8.45a30.93,30.93,0,0,0,9.66-1.88L849.87,205A41.91,41.91,0,0,1,835.51,207.42Z"/><path class="cls-4" d="M894.14,198.29c-4.42,5.37-9.79,9.13-17.44,9.13-11.14,0-19.19-7.65-19.19-17.45,0-11.4,8.32-21.06,36.63-22v-1.48c0-8.31-3.49-11.8-12.34-11.8-6.31,0-13.95,2.82-20.53,6.57l-3.22-12.48a51.49,51.49,0,0,1,25.9-7.24c19,0,26.43,8.45,26,25.49v22.14c0,4.7.81,5.37,5.51,5.63l-1.21,11.95c-11.81,1.34-17.31-2.28-19.59-8.46Zm0-22c-15.43,1.88-21.06,5-21.06,11.54,0,4.69,3.62,8,9.26,8a15.8,15.8,0,0,0,11.8-5.37Z"/><path class="cls-4" d="M926.21,205.4V115.78L942,113.63V205.4Z"/><path class="cls-4" d="M638.09,248.52a91.93,91.93,0,0,0-5.34-8.09c-1.33-1.89-1.85-2.48-3.19-2.48H626.3v10.57h-3.19V223h10c4.08,0,7.34,2.45,7.34,7.34s-2.71,6.71-5.38,7.38a5.15,5.15,0,0,1-1,.11,50.93,50.93,0,0,1,7.63,10.72Zm-4.71-13.28c2,0,4-1,4-4.93a4.18,4.18,0,0,0-4.52-4.49H626.3v9.42Z"/><path class="cls-4" d="M644.36,239.39c0-5.93,4.08-9.23,8.56-9.23,5.31,0,8.46,3.64,8.46,9.57l-.08,1H647.55c0,3.71,3.22,5.75,6.23,5.75a31.26,31.26,0,0,0,6.23-1v2.45a26.26,26.26,0,0,1-6.79,1.07C648.25,248.92,644.36,246,644.36,239.39Zm13.9-1a5.37,5.37,0,1,0-10.71,0Z"/><path class="cls-4" d="M681,250.85c0,4.08-3.67,5.45-8,5.45a19.69,19.69,0,0,1-5.52-.92v-2.53a16.13,16.13,0,0,0,4.82,1.12c5.34,0,5.48-1.82,5.48-3.34v-3.08c-.88.82-3,1.23-4.37,1.23a8.84,8.84,0,0,1-8.64-9.13c0-8.08,5.45-9.64,8.45-9.64a6.09,6.09,0,0,1,4.56,1.93l.23-1.52h3Zm-12.86-11.38c0,3.56,2.26,6.82,6.38,6.82a7.87,7.87,0,0,0,3.29-.93V234.31a6.26,6.26,0,0,0-4.11-2C671,232.39,668.17,234.24,668.17,239.47Z"/><path class="cls-4" d="M688.23,223c1.59,0,1.93.85,1.93,1.93a1.93,1.93,0,0,1-3.86,0C686.3,223.82,686.64,223,688.23,223Zm-1.56,25.55v-18h3.19v18Z"/><path class="cls-4" d="M702.13,232.61c-3-.15-4.33,1.26-4.37,2.56,0,0-.26,1.52,1.67,2.07,5,1.67,8.75,2.27,8.53,6.68s-3.67,5-7.72,5a14.21,14.21,0,0,1-5.52-1.29V245a14.79,14.79,0,0,0,5.64,1.26c2.52,0,4.3-.41,4.48-2.48s-2.74-2.67-6.34-3.86c-4.23-1.37-3.93-4.75-3.93-4.75.11-3.07,2.41-5.26,7.71-5a26.09,26.09,0,0,1,4.75.89v2.63A16.09,16.09,0,0,0,702.13,232.61Z"/><path class="cls-4" d="M710.55,233.05v-2.48h3.12v-4.41l3.15-.93v5.34H721v2.48h-4.15v10.27c0,1.52.07,2.82,3.71,2.82H721v2.56h-1.15c-4.3,0-6.19-1.07-6.19-5.15v-10.5Z"/><path class="cls-4" d="M723.87,239.39c0-5.93,4.08-9.23,8.56-9.23,5.3,0,8.46,3.64,8.46,9.57l-.08,1H727.06c0,3.71,3.22,5.75,6.23,5.75a31.15,31.15,0,0,0,6.22-1v2.45a26.16,26.16,0,0,1-6.78,1.07C727.76,248.92,723.87,246,723.87,239.39Zm13.9-1a5.37,5.37,0,1,0-10.71,0Z"/><path class="cls-4" d="M748.49,232.24a10.22,10.22,0,0,1,5.3-2,12.52,12.52,0,0,1,1.34.07v2.9a11,11,0,0,0-1.34-.08,10.31,10.31,0,0,0-5.3,1.63v13.8H745.3v-18h3Z"/><path class="cls-4" d="M757.54,239.39c0-5.93,4.08-9.23,8.56-9.23,5.31,0,8.46,3.64,8.46,9.57l-.08,1H760.73c0,3.71,3.22,5.75,6.23,5.75a31.26,31.26,0,0,0,6.23-1v2.45a26.26,26.26,0,0,1-6.79,1.07C761.43,248.92,757.54,246,757.54,239.39Zm13.9-1a5.37,5.37,0,1,0-10.71,0Z"/><path class="cls-4" d="M786.76,248.92c-3,0-8.79-1.55-8.79-9.64a8.92,8.92,0,0,1,8.6-9.12,10.28,10.28,0,0,1,4.75.93v-8.9h3.19v22.95c0,2,2.45,1,2.85.71v2.33a7.05,7.05,0,0,1-2.74.74,2.83,2.83,0,0,1-3-2.11A6.38,6.38,0,0,1,786.76,248.92Zm.45-2.33a5.76,5.76,0,0,0,4.11-2.15V233.57a6.68,6.68,0,0,0-3.3-.92c-4.12,0-6.71,2.85-6.71,6.82C781.31,244.7,784.31,246.59,787.21,246.59Z"/><path class="cls-4" d="M813.42,238.1v10.42h-3.18V223H820.8a7.19,7.19,0,0,1,6.94,7.34c0,6.53-4.68,7.79-7.09,7.79Zm7.27-2.86c1.3,0,3.9-1,3.9-4.93a4.33,4.33,0,0,0-3.79-4.49h-7.38v9.42Z"/><path class="cls-4" d="M835.16,232.24a10.16,10.16,0,0,1,5.3-2,12.27,12.27,0,0,1,1.33.07v2.9a10.75,10.75,0,0,0-1.33-.08,10.28,10.28,0,0,0-5.3,1.63v13.8H832v-18h3Z"/><path class="cls-4" d="M853.36,230.16h.19c4.3,0,9.16,2.15,9.16,9.35s-4.82,9.53-9.12,9.41h-.23c-4.3.12-9.16-2.55-9.16-9.3S849.06,230.05,853.36,230.16Zm.11,2.45c-3.85,0-6.08,2.71-6.08,6.86,0,4.34,2.23,7,6.08,7s6-2.49,6-7C859.52,235.13,857.29,232.61,853.47,232.61Z"/><path class="cls-4" d="M873.72,245.18l5.3-14.61h3.42l-7,18H872l-7-18h3.41Z"/><path class="cls-4" d="M887.48,223c1.6,0,1.93.85,1.93,1.93a1.93,1.93,0,0,1-3.86,0C885.55,223.82,885.89,223,887.48,223Zm-1.56,25.55v-18h3.19v18Z"/><path class="cls-4" d="M902.54,248.92c-3,0-8.79-1.55-8.79-9.64a8.91,8.91,0,0,1,8.6-9.12,10.3,10.3,0,0,1,4.75.93v-8.9h3.19v22.95c0,2,2.44,1,2.85.71v2.33a7.05,7.05,0,0,1-2.74.74,2.85,2.85,0,0,1-3-2.11A6.35,6.35,0,0,1,902.54,248.92Zm.44-2.33a5.81,5.81,0,0,0,4.12-2.15V233.57a6.72,6.72,0,0,0-3.3-.92c-4.12,0-6.71,2.85-6.71,6.82C897.09,244.7,900.09,246.59,903,246.59Z"/><path class="cls-4" d="M915.89,239.39c0-5.93,4.08-9.23,8.56-9.23,5.3,0,8.46,3.64,8.46,9.57l-.08,1H919.08c0,3.71,3.22,5.75,6.22,5.75a31.13,31.13,0,0,0,6.23-1v2.45a26.16,26.16,0,0,1-6.78,1.07C919.78,248.92,915.89,246,915.89,239.39Zm13.9-1a5.37,5.37,0,1,0-10.71,0Z"/><path class="cls-4" d="M940.51,232.24a10.22,10.22,0,0,1,5.3-2,12.52,12.52,0,0,1,1.34.07v2.9a11,11,0,0,0-1.34-.08,10.31,10.31,0,0,0-5.3,1.63v13.8h-3.19v-18h3Z"/></g></g></svg>