<svg xmlns="http://www.w3.org/2000/svg" viewBox="0 0 896.74 340.86"><defs><style>.cls-1{fill:#fff;}.cls-2{fill:#ffde4e;}.cls-3{fill:#00e1b9;}.cls-4{fill:#5665db;}</style></defs><title>Asset 2</title><g id="Layer_2" data-name="Layer 2"><g id="Layer_1-2" data-name="Layer 1"><path class="cls-1" d="M853.25,340.86H43.49C19.47,340.86,0,318,0,289.75V51.11C0,22.88,19.47,0,43.49,0H853.25c24,0,43.49,22.88,43.49,51.11V289.75C896.74,318,877.27,340.86,853.25,340.86Z"/><path class="cls-2" d="M209.11,242.17c-3.8,5.1-6.74,9.5-10.16,13.5-6,7-11.6,14.61-18.61,20.47-16.6,13.87-37.35,11.39-48.52-7a137.41,137.41,0,0,1-15.81-39c-9.39-39.37-10-79.36-6.43-119.66,2.34-26.37,17.39-40.31,41-46.72,38.49-10.44,77.26-10.74,115.81-.22,8.06,2.2,15.87,6,23.15,10.23,13.92,8,17.63,22,19.43,36.67,4.19,34.24,2.81,68.41-2.32,102.37-2.8,18.54-6.89,37-17.14,53.22-13.55,21.51-34.32,25-53.34,8-7.42-6.6-13.31-14.93-19.81-22.54C214.09,248.91,212.06,246,209.11,242.17Zm81.13-95c-.29-5.85-.52-16.93-1.49-27.94-2-22.84-6.85-29.72-26.78-35.15a196,196,0,0,0-106.58.51c-15.77,4.45-23.81,13.75-25.3,30.51-3.41,38.53-1.84,76.66,7.35,114.23,2.34,9.57,6.75,18.88,11.67,27.48,4.56,8,11,8.43,18.09,2.65a62,62,0,0,0,9.62-10c5.23-6.68,9.88-13.82,15.11-20.51,9.37-12,25-11.88,34.27.06,1.89,2.44,3.49,5.12,5.47,7.47,6.3,7.46,12.2,15.36,19.23,22.06,7.56,7.22,14.13,6.1,19.8-2.66A69.74,69.74,0,0,0,278,240.7C287.76,212.09,289.64,182.34,290.24,147.19Z"/><path class="cls-3" d="M246.49,176.89a14.27,14.27,0,0,0-9.92-8.16,4.15,4.15,0,0,0-1-.21h0l-.12-.12c0,.08-.13.12-.13.2-4.86,6.17-9.51,12.46-14.12,18.82-.09.09-.13.17-.21.25-2.49,3.51-5,7.1-7.55,10.66-11.11,15.8-21.93,31.8-33.56,47.23-5.11,6.78-16.41,23.85-26.79,16-4.89-3.76-7.71-11.27-10.16-16.7-2.21-4.94-4-10.7-5.64-15.51,0-.17-.53-.25-1.26-.29a14.84,14.84,0,0,0-14.5,19.8c3.6,9.76,8.42,19.23,15.07,26.38a29.31,29.31,0,0,0,32.91,7.51c11-4.49,19.11-14.13,26.37-23.15,17.31-21.48,32.54-44.63,48.63-67,.24-.29.49-.61.69-.9s.45-.65.66-1A14.67,14.67,0,0,0,246.49,176.89Z"/><path class="cls-4" d="M381.29,143.55c1.83.34,3.31,2.35,3.48,2.61a157.59,157.59,0,0,1,14.65,21.54H381.37a215.65,215.65,0,0,0-13-19.44c-.61-.79-1.57-2.45-2.79-2.45h-1.31V167.7H347.54V107.62H373.7c11.25,0,20.4,6.28,20.4,19C394.1,137.36,387.13,142.5,381.29,143.55Zm-9.86-10.38a6.17,6.17,0,0,0,6.19-6.28,5.92,5.92,0,0,0-6.19-6.1H364v12.38Z"/><path class="cls-4" d="M400.9,146.34c0-13.87,10.21-21.89,21.63-21.89,13.52,0,21.45,8.63,21.45,22.5l-.17,3.83H417.47c.26,3,3,6.72,9.42,6.72a81.65,81.65,0,0,0,14.39-2.09v10.2c-6.11,1.65-11.34,3-18.14,3C410.58,168.66,400.9,161.77,400.9,146.34Zm27-3.75c.17-2.62-.87-6.72-5.32-6.72s-5.58,4.19-5.41,6.72Z"/><path class="cls-4" d="M480.43,165.17c-2.36,2.7-7.33,3.49-11.43,3.49-9.68,0-19.62-7.76-19.62-21.54,0-18.66,13.78-22.67,19.27-22.67a15.76,15.76,0,0,1,12,5.32l.87-4.27H494.9v43.16c0,10.72-7.58,17.35-22.06,17.35-4.27,0-13.17-.35-18.83-3.14V171.62a49.17,49.17,0,0,0,15.6,3.32c8.2,0,10.82-2.79,10.82-7.59Zm-6.81-7.85a11,11,0,0,0,5.41-1.48V138.05a10.57,10.57,0,0,0-6.1-1.83c-4.89,0-8.37,4.8-8.37,10.55C464.56,152,467.87,157.32,473.62,157.32Z"/><path class="cls-4" d="M512.43,105.79c6.71,0,8.19,3.14,8.19,7.24s-1.92,7.23-8.19,7.23-8.29-3.13-8.29-7.23S505.71,105.79,512.43,105.79Zm-7.77,61.91V125.5h15.7v42.2Z"/><path class="cls-4" d="M544.16,137.7c0,.35,0,1.57,3.49,2.53,9.94,3.14,17.35,4.89,16.83,15.09-1,11.25-9.59,13.34-20.14,13.34a40.77,40.77,0,0,1-15.26-3.49V154.36a47.75,47.75,0,0,0,15.43,3.49c3.14,0,4.71-.7,4.71-2.27s-2.09-2.09-4.88-2.88l-4.71-1.31c-11.6-3.66-11.25-12.9-11.25-13.69,0-6.71,5.84-13.25,18.57-13.25a40,40,0,0,1,15.26,3.49v10.72a37.48,37.48,0,0,0-13.51-3.14C544.25,135.52,544.16,137.09,544.16,137.7Z"/><path class="cls-4" d="M569,135.87V125.5h6.19v-8.72l15.87-4.8V125.5H599v10.37h-7.94V153.4c0,1,.09,3.14,2.62,3.14h5.67v11.51h-7c-12,0-17.18-2.88-17.18-13.78v-18.4Z"/><path class="cls-4" d="M604.59,146.34c0-13.87,10.2-21.89,21.62-21.89,13.52,0,21.45,8.63,21.45,22.5l-.17,3.83H621.15c.27,3,3,6.72,9.42,6.72A81.51,81.51,0,0,0,645,155.41v10.2c-6.1,1.65-11.34,3-18.14,3C614.27,168.66,604.59,161.77,604.59,146.34Zm26.94-3.75c.18-2.62-.87-6.72-5.32-6.72s-5.58,4.19-5.4,6.72Z"/><path class="cls-4" d="M671.12,167.7h-16V125.5h14.21l.87,4.53c4.19-3.84,7.85-5.14,10.91-5.14a33.23,33.23,0,0,1,4.53.34v12a19.74,19.74,0,0,0-3.66-.26c-2.62,0-7.94,1-10.9,2.7Z"/><path class="cls-4" d="M689.6,146.34c0-13.87,10.2-21.89,21.63-21.89,13.51,0,21.45,8.63,21.45,22.5l-.18,3.83H706.17c.26,3,3,6.72,9.42,6.72A81.41,81.41,0,0,0,730,155.41v10.2c-6.1,1.65-11.33,3-18.13,3C699.28,168.66,689.6,161.77,689.6,146.34Zm26.95-3.75c.17-2.62-.88-6.72-5.32-6.72s-5.58,4.19-5.41,6.72Z"/><path class="cls-4" d="M757.26,168.66c-5.49,0-19.27-3.92-19.27-22.58,0-13.78,9.94-21.63,19.62-21.63a17.53,17.53,0,0,1,10,3.23V105.79h15.87v48.57c0,1.74.79,2.35,1.57,2.35s1.57-.08,4.1-1v9.85c-2.53,1.31-6.8,3.14-10.73,3.14a9.91,9.91,0,0,1-8-5.15C766.6,167.7,761.54,168.66,757.26,168.66Zm4.28-11.77a10.58,10.58,0,0,0,6.1-1.75V137.36a11.06,11.06,0,0,0-5.41-1.57c-5.75,0-9.06,5.4-9.06,10.63C753.17,152.18,756.65,156.89,761.54,156.89Z"/><path class="cls-4" d="M372,239.69c-3.14,0-7.41-1.05-10-3.14v19.62H346.15V196.53h13.34l.87,4.27a15.76,15.76,0,0,1,12-5.32c5.5,0,19.27,4,19.27,22.67C391.66,231.93,381.72,239.69,372,239.69Zm-3.92-32.44a10.59,10.59,0,0,0-6.1,1.83v17.79a11,11,0,0,0,5.4,1.49c5.76,0,9.07-5.32,9.07-10.56C376.49,212.05,373,207.25,368.12,207.25Z"/><path class="cls-4" d="M415.2,238.73H399.25v-42.2h14.21l.87,4.53c4.19-3.83,7.85-5.14,10.9-5.14a32.4,32.4,0,0,1,4.54.35v11.94a19.81,19.81,0,0,0-3.67-.26c-2.61,0-7.93,1-10.9,2.7Z"/><path class="cls-4" d="M457.76,195.48c11.16,0,24.24,5.32,24.24,22.06,0,14.74-10.64,22.06-24.07,22.15-10.81.26-24.33-6.1-24.33-21.89C433.6,201.85,446.86,195.31,457.76,195.48Zm.08,11.77c-4.79,0-8.72,4.54-8.72,10.21,0,6.1,3.93,10.46,8.72,10.46s8.72-4.1,8.72-10.46C466.56,211.44,462.64,207.25,457.84,207.25Z"/><path class="cls-4" d="M507.81,219.9l7-23.37H531.7l-16.92,42.2H500.83l-16.92-42.2h16.75Z"/><path class="cls-4" d="M544.34,176.82c6.71,0,8.2,3.14,8.2,7.24s-1.92,7.24-8.2,7.24-8.28-3.14-8.28-7.24S537.63,176.82,544.34,176.82Zm-7.76,61.91v-42.2h15.69v42.2Z"/><path class="cls-4" d="M579.13,239.69c-5.49,0-19.27-3.92-19.27-22.58,0-13.78,9.94-21.63,19.62-21.63a17.63,17.63,0,0,1,10,3.23V176.82h15.87v48.57c0,1.74.78,2.35,1.57,2.35s1.57-.08,4.09-1v9.85c-2.52,1.31-6.8,3.14-10.72,3.14a9.87,9.87,0,0,1-8-5.14C588.46,238.73,583.4,239.69,579.13,239.69Zm4.27-11.77a10.67,10.67,0,0,0,6.11-1.74V208.39a11.09,11.09,0,0,0-5.41-1.57c-5.76,0-9.07,5.4-9.07,10.64C575,223.21,578.52,227.92,583.4,227.92Z"/><path class="cls-4" d="M615.58,217.37c0-13.87,10.2-21.89,21.62-21.89,13.52,0,21.45,8.63,21.45,22.5l-.17,3.84H632.14c.26,3,3,6.71,9.42,6.71A80.6,80.6,0,0,0,656,226.44v10.2c-6.1,1.66-11.34,3-18.14,3.05C625.25,239.69,615.58,232.8,615.58,217.37Zm26.94-3.75c.17-2.62-.87-6.72-5.32-6.72s-5.58,4.19-5.41,6.72Z"/><path class="cls-4" d="M682.11,238.73h-16v-42.2h14.21l.87,4.53c4.19-3.83,7.85-5.14,10.9-5.14a32.4,32.4,0,0,1,4.54.35v11.94A19.74,19.74,0,0,0,693,208c-2.62,0-7.94,1-10.9,2.7Z"/></g></g></svg>