<svg xmlns="http://www.w3.org/2000/svg" viewBox="0 0 247.62 54.42"><defs><style>.cls-1{fill:#ffde50;}.cls-2{fill:#fff;}.cls-3{fill:#5abca8;}</style></defs><g id="Layer_2" data-name="Layer 2"><g id="Layer_1-2" data-name="Layer 1"><path class="cls-1" d="M7.11,41.16A82.29,82.29,0,0,1,5.37,14c.34-4,2.25-6.19,6-7.24a46.54,46.54,0,0,1,25.32-.12C41.43,8,42.58,9.59,43.05,15c.24,2.64.29,5.24.36,6.64l0,0c-.14,8.35-.6,15.42-2.93,22.21a16.1,16.1,0,0,1-1.72,3.63c-1.36,2.08-2.91,2.35-4.7.63a63.26,63.26,0,0,1-4.57-5.24c-.46-.56-.85-1.19-1.3-1.77a4.93,4.93,0,0,0-1-1.05q-1.5,2.12-3,4.22v0c.73.91,1.19,1.6,1.73,2.23a50.82,50.82,0,0,0,4.7,5.35c4.52,4,9.46,3.2,12.68-1.91,2.43-3.86,3.4-8.23,4.07-12.64A89.64,89.64,0,0,0,47.87,13c-.44-3.49-1.31-6.8-4.62-8.71a24.37,24.37,0,0,0-5.5-2.43,51.79,51.79,0,0,0-27.51,0C4.61,3.39,1,6.7.48,13-.37,22.54-.22,32,2,41.4a33.19,33.19,0,0,0,1.21,3.9,3.7,3.7,0,0,1-.07-.81v0a3.51,3.51,0,0,1,3.64-3.38,1,1,0,0,0,.29.06"/><polygon class="cls-2" points="65.2 37.46 82 37.47 82 33.41 69.93 33.41 69.93 27.13 79.83 27.13 79.83 23.07 69.93 23.07 69.93 16.88 82 16.88 82 12.81 65.2 12.81 65.2 37.46"/><path class="cls-2" d="M100.46,32.69v-6.5c.13-5-2-7.5-7.64-7.5a15.31,15.31,0,0,0-7.61,2.13l1,3.67a13.28,13.28,0,0,1,6-1.93c2.62,0,3.62,1,3.62,3.47v.43c-8.32.27-10.76,3.12-10.76,6.47,0,2.87,2.37,5.12,5.64,5.12a6.41,6.41,0,0,0,5.12-2.68H96c.67,1.82,2.29,2.88,5.76,2.49l.35-3.51C100.7,34.27,100.46,34.08,100.46,32.69Zm-4.63.4a4.61,4.61,0,0,1-3.46,1.57l-.26,0a2.42,2.42,0,0,1-2.46-2.38c0-1.93,1.65-2.84,6.18-3.39Z"/><path class="cls-2" d="M112.27,26.48c-2.13-.51-3.66-1-3.66-2.37,0-1.18,1-1.81,2.72-1.81a14.09,14.09,0,0,1,5.72,1.5l1-3.63a16.09,16.09,0,0,0-6.62-1.46c-4.38,0-7.25,2.24-7.25,5.67s2.72,4.85,6.15,5.64c2.13.51,3.67,1,3.67,2.45,0,1.25-1.19,2-3,2a13.14,13.14,0,0,1-6.15-1.7l-1,3.63a15.89,15.89,0,0,0,7.06,1.69h0c4.65,0,7.57-2.52,7.57-5.9C118.46,28.65,115.74,27.32,112.27,26.48Z"/><path class="cls-2" d="M129.19,32.35l-4.53-13h-5l7.1,17.93L126,39.37c-.94,2.47-1.66,3.06-3,3.06a6.68,6.68,0,0,1-2.88-.88l-1.38,3.82a10.72,10.72,0,0,0,4.62,1.07c3.35,0,5.4-1.47,7.21-6.47l1.07-2.87,6.92-17.75h-5Z"/><path class="cls-2" d="M163,25c0-7.34-4.89-12.15-13.29-12.15h-8.36V37.46h8.05C158.15,37.46,163,32.57,163,25Zm-13.37,8.45h-3.5V16.89h3.27c5.64,0,8.75,2.85,8.75,8.33S154.83,33.41,149.63,33.41Z"/><path class="cls-2" d="M181.69,32.72A11.17,11.17,0,0,1,176,34.37l-.31,0a5.08,5.08,0,0,1-5.13-5v-.11l11.91-.16a12.6,12.6,0,0,0,.4-3c0-4.46-2.69-7.38-7.5-7.38-5.44,0-9.39,4.07-9.39,9.86s3.86,9.5,9.7,9.5a14.17,14.17,0,0,0,6.58-1.5ZM175,22.18c2.4,0,3.46,1.56,3.46,4v.32l-7.8,0A4.48,4.48,0,0,1,175,22.18Z"/><path class="cls-2" d="M197.41,18.69a8.38,8.38,0,0,0-6,2.92V18.72l-4.65.64V37.49h4.65v-13a6.11,6.11,0,0,1,4-1.7c2.09,0,3.16.91,3.16,3.59V37.46h4.68V25C203.25,21,201.08,18.69,197.41,18.69Z"/><path class="cls-2" d="M208.5,31.9c-.2,4.39,1.93,6.15,6,6.15l0,0a12,12,0,0,0,4.2-.72l-.62-3.78a8.89,8.89,0,0,1-2.84.55,2.09,2.09,0,0,1-.66,0,2.13,2.13,0,0,1-1.75-2.47l.24-8.4h5.29l.12-3.82H213.4l.07-4.26H209l-.08,4-2.84.91-.12,3,2.84.31Z"/><path class="cls-2" d="M231.73,35.37h.14c.67,1.82,2.29,2.88,5.76,2.49l.35-3.51c-1.38-.08-1.61-.27-1.61-1.66v-6.5c.12-5-2-7.5-7.64-7.5a15.31,15.31,0,0,0-7.61,2.13l1,3.67a13.16,13.16,0,0,1,6-1.93c2.62,0,3.62,1,3.62,3.47v.43c-8.32.27-10.76,3.12-10.76,6.47,0,2.87,2.36,5.12,5.63,5.12A6.41,6.41,0,0,0,231.73,35.37ZM228,34.68a2.42,2.42,0,0,1-2.46-2.38c0-1.93,1.65-2.84,6.19-3.39v4.18a4.69,4.69,0,0,1-3.47,1.57Z"/><polygon class="cls-2" points="245.8 10.49 241.15 11.12 241.15 37.46 245.8 37.46 245.8 10.49"/><path class="cls-2" d="M147.49,43.42a2.77,2.77,0,0,0-1.83.88,1.53,1.53,0,0,0-1.51-.88,2.74,2.74,0,0,0-1.67.71v-.72l-.48.15v5.3h.45V44.54a2.57,2.57,0,0,1,1.6-.7c.86,0,1.26.53,1.26,1.47v3.55h.48V45.27a3.68,3.68,0,0,0-.06-.66,2.63,2.63,0,0,1,1.67-.77c.86,0,1.26.53,1.26,1.47v3.55h.5V45.22a1.36,1.36,0,0,0,0-.35A1.58,1.58,0,0,0,147.49,43.42Z"/><path class="cls-2" d="M154.14,48v-2.9a2.28,2.28,0,0,0,0-.37,1.58,1.58,0,0,0-1.75-1.37,3.84,3.84,0,0,0-2,.66l.12.48a3.33,3.33,0,0,1,1.79-.69,1.08,1.08,0,0,1,.31,0,1.17,1.17,0,0,1,1,1.33v.49c-2.47.16-3.29.89-3.29,1.89a.28.28,0,0,0,0,.09A1.5,1.5,0,0,0,152,49a2.24,2.24,0,0,0,1.69-.84h.06a1,1,0,0,0,0,.17.81.81,0,0,0,.94.65v-.36C154.22,48.6,154.14,48.36,154.14,48Zm-.5-.34a2.05,2.05,0,0,1-1.56.83h0a1.11,1.11,0,0,1-1.21-1c0-.79.72-1.29,2.81-1.5Z"/><polygon class="cls-2" points="159.5 43.52 158.88 43.52 156.29 46 156.27 46 156.27 40.84 155.79 40.99 155.79 48.85 156.28 48.85 156.28 46.17 156.29 46.17 158.88 48.85 159.51 48.85 156.8 46.08 159.5 43.52"/><path class="cls-2" d="M160.85,41.52h0a.34.34,0,0,0-.31.35v0a.34.34,0,0,0,.34.34h0a.36.36,0,0,0,.34-.36A.35.35,0,0,0,160.85,41.52Z"/><polygon class="cls-2" points="160.62 48.85 161.1 48.86 161.1 43.4 160.62 43.55 160.62 48.85"/><path class="cls-2" d="M165.23,43.41a3,3,0,0,0-1.9.93v-.93l-.48.15v5.3h.48v-4.1a2.77,2.77,0,0,1,1.84-.92c.86,0,1.26.53,1.26,1.47v3.55h.47V45.22a1.28,1.28,0,0,0,0-.34A1.58,1.58,0,0,0,165.23,43.41Z"/><path class="cls-2" d="M170.27,43.37h-.16a2,2,0,0,0-1.42.81,2,2,0,0,0,.42,2.79c-.43.2-.87.54-.87,1v0c0,.41.31.67.75.79a1.62,1.62,0,0,0-1.22,1.42c0,.89,1,1.55,2.35,1.55s2.74-.72,2.74-1.9c0-.81-.6-1.36-2.11-1.36h-.88c-.92,0-1.2-.25-1.2-.59s.33-.58.66-.74a2.21,2.21,0,0,0,.84.17.67.67,0,0,0,.2,0,1.9,1.9,0,0,0,1.8-2,2.11,2.11,0,0,0-.5-1.31l1.33.06v-.49l-1.59.09A1.94,1.94,0,0,0,170.27,43.37Zm.5,5.54c1,0,1.66.21,1.66,1s-1,1.44-2.23,1.44-1.95-.51-1.95-1.2v0a1.5,1.5,0,0,1,1.26-1.26Zm1-3.54v.14h0a1.46,1.46,0,0,1-1.52,1.41v0h-.12a1.47,1.47,0,0,1-1.35-1.6,1.35,1.35,0,0,1,0-.49,1.52,1.52,0,0,1,3,.49Z"/><path class="cls-2" d="M180.29,43.83a3.07,3.07,0,0,0-1.45-.41h-.25a2.58,2.58,0,0,0-2.32,2.8,1.48,1.48,0,0,0,0,.21,2.44,2.44,0,0,0,2.41,2.5,2.56,2.56,0,0,0,1.62-.65v.53h.47v-8l-.47.15Zm.06,4a2.32,2.32,0,0,1-1.58.69h-.16a2,2,0,0,1-1.79-2.28.81.81,0,0,1,0-.16,2.12,2.12,0,0,1,2-2.22h0a2.72,2.72,0,0,1,1.49.45Z"/><path class="cls-2" d="M184.55,43.41l-.16,0a2.52,2.52,0,0,0-2.23,2.79A2.44,2.44,0,0,0,184.58,49a3,3,0,0,0,1.64-.46l-.11-.43a2.64,2.64,0,0,1-1.49.45c-1.25,0-2-1-2-2.36l0-.1h3.63a3.86,3.86,0,0,0,.11-.84v-.17h0A1.76,1.76,0,0,0,184.55,43.41Zm1.3,2.26h-3.23a1.93,1.93,0,0,1,1.85-1.83h.17a1.32,1.32,0,0,1,1.21,1.43A2.54,2.54,0,0,1,185.85,45.67Z"/><path class="cls-2" d="M190.23,43.41a3,3,0,0,0-1.91.93v-.93l-.48.15v5.3h.48v-4.1a2.77,2.77,0,0,1,1.84-.92c.87,0,1.26.53,1.26,1.47v3.55h.48V45.22a1.28,1.28,0,0,0,0-.34A1.58,1.58,0,0,0,190.23,43.41Z"/><path class="cls-2" d="M194.9,48.66c-.63,0-.86-.38-.86-1.26l.09-3.36H196v-.41h-1.92V42.35h-.46v1.27l-.71.09V44h.73l-.09,3.32c0,1.08.32,1.7,1.32,1.7v0a2.37,2.37,0,0,0,1.21-.33l-.09-.41A2.23,2.23,0,0,1,194.9,48.66Z"/><path class="cls-2" d="M200.64,48v-2.9a2.16,2.16,0,0,0,0-.36,1.59,1.59,0,0,0-1.76-1.38,3.84,3.84,0,0,0-2,.66l.12.48a3.18,3.18,0,0,1,1.8-.69.94.94,0,0,1,.29,0,1.18,1.18,0,0,1,1,1.33v.49c-2.48.16-3.3.89-3.3,1.89a.28.28,0,0,0,0,.09A1.5,1.5,0,0,0,198.49,49a2.24,2.24,0,0,0,1.67-.84h.1a1.09,1.09,0,0,0,0,.18.8.8,0,0,0,.93.64v-.36C200.72,48.6,200.64,48.36,200.64,48Zm-.48-.34a2.16,2.16,0,0,1-1.57.83h0a1.12,1.12,0,0,1-1.21-1c0-.79.72-1.29,2.81-1.5Z"/><polygon class="cls-2" points="202.29 48.85 202.76 48.85 202.76 40.84 202.29 40.99 202.29 48.85"/><path class="cls-2" d="M209.32,43.84a2.81,2.81,0,0,1,1.49.43l.12-.43a3,3,0,0,0-1.61-.45,2.8,2.8,0,0,0,.06,5.58,2.9,2.9,0,0,0,1.54-.44l-.12-.43a2.67,2.67,0,0,1-1.42.44,2.37,2.37,0,0,1-.06-4.7Z"/><path class="cls-2" d="M215.64,48v-2.9a2.16,2.16,0,0,0,0-.36,1.59,1.59,0,0,0-1.76-1.38,3.89,3.89,0,0,0-1.95.66l.12.48a3.18,3.18,0,0,1,1.8-.69,1,1,0,0,1,.3,0,1.18,1.18,0,0,1,1,1.33v.49c-2.47.16-3.28.89-3.28,1.89a.34.34,0,0,0,0,.1A1.49,1.49,0,0,0,213.54,49a2.24,2.24,0,0,0,1.67-.84h.06a.43.43,0,0,0,0,.16.8.8,0,0,0,.93.65v-.36C215.72,48.6,215.64,48.36,215.64,48Zm-2,.49c-.69,0-1.24-.21-1.24-1s.72-1.29,2.8-1.5v1.67A2.09,2.09,0,0,1,213.6,48.52Z"/><path class="cls-2" d="M217.8,44.74V43.42l-.48.14v5.3h.48V45.51c.44-1.2,1-1.65,1.59-1.65a1.56,1.56,0,0,1,.79.21l.14-.44a2.2,2.2,0,0,0-.88-.22A1.89,1.89,0,0,0,217.8,44.74Z"/><path class="cls-2" d="M223.12,43.41l-.15,0a2.54,2.54,0,0,0-2.25,2.79,2.28,2.28,0,0,0,0,.26A2.47,2.47,0,0,0,223.15,49a3,3,0,0,0,1.63-.47l-.1-.43a2.77,2.77,0,0,1-1.5.45c-1.25,0-2-1-2-2.36l0-.1h3.64a3.86,3.86,0,0,0,.11-.84v-.17h0A1.76,1.76,0,0,0,223.12,43.41Zm1.3,2.26h-3.23A1.93,1.93,0,0,1,223,43.84h.17a1.32,1.32,0,0,1,1.21,1.43A2.54,2.54,0,0,1,224.42,45.67Z"/><path class="cls-2" d="M231.13,43.41l-.15,0a2.52,2.52,0,0,0-2.23,2.79c0,.08,0,.16,0,.24A2.48,2.48,0,0,0,231.17,49a3,3,0,0,0,1.64-.46l-.11-.43a2.64,2.64,0,0,1-1.49.45c-1.26,0-2-1-2-2.36l0-.09h3.64a3.86,3.86,0,0,0,.11-.84v-.19A1.77,1.77,0,0,0,231.13,43.41Zm1.31,2.26h-3.25A1.93,1.93,0,0,1,231,43.84h.16a1.33,1.33,0,0,1,1.24,1.43A2.54,2.54,0,0,1,232.44,45.67Z"/><path class="cls-2" d="M237.79,48v-2.9a2.28,2.28,0,0,0,0-.37A1.59,1.59,0,0,0,236,43.39a3.76,3.76,0,0,0-2,.66l.12.48a3.18,3.18,0,0,1,1.79-.69,1,1,0,0,1,.29,0,1.18,1.18,0,0,1,1,1.33v.49c-2.47.16-3.29.89-3.29,1.89v0A1.51,1.51,0,0,0,235.63,49a2.24,2.24,0,0,0,1.67-.84h.11a.43.43,0,0,0,0,.16.8.8,0,0,0,.93.65v-.36C237.87,48.6,237.79,48.36,237.79,48Zm-2.06.49c-.68,0-1.24-.21-1.24-1s.72-1.29,2.81-1.5v1.67A2.09,2.09,0,0,1,235.73,48.52Z"/><path class="cls-2" d="M240.83,46c-.7-.23-1.4-.52-1.4-1.14s.48-1,1.21-1a2.85,2.85,0,0,1,1.39.41l.16-.44a3.44,3.44,0,0,0-1.51-.38h-.17A1.48,1.48,0,0,0,239,44.84c0,.89.82,1.27,1.53,1.48s1.42.57,1.42,1.21-.67,1-1.35,1a2.6,2.6,0,0,1-1.5-.48l-.15.45a3,3,0,0,0,1.63.47l0,0,.15,0a1.6,1.6,0,0,0,1.65-1.54C242.35,46.51,241.53,46.18,240.83,46Z"/><path class="cls-2" d="M247.12,43.53l-1.79,4.67-1.82-4.67H243l2,5.29-.4,1.08c-.41,1.08-.77,1.31-1.18,1.31a1.55,1.55,0,0,1-.78-.21l-.14.44a2.1,2.1,0,0,0,.92.21c.59,0,1.13-.34,1.59-1.59l.5-1.36,2.07-5.17Z"/><path class="cls-3" d="M33,28.69v0a3.4,3.4,0,0,0-2.35-1.95l-.24-.05v.05c-1.16,1.47-2.26,3-3.36,4.46v.06c-.59.84-1.2,1.69-1.8,2.53-1.61,2.3-3.2,4.6-4.83,6.89-1,1.46-2.08,2.91-3.17,4.34-1.21,1.6-3.9,5.66-6.37,3.8h0l-.21-.19c-1.09-.92-1.7-2.6-2.25-3.81,0-.09-.08-.17-.11-.26l-.05-.1a29.91,29.91,0,0,1-1.18-3.33,1,1,0,0,1-.29-.06,3.51,3.51,0,0,0-3.64,3.38v0a3.7,3.7,0,0,0,.07.81,34.05,34.05,0,0,0,2.35,5,18.07,18.07,0,0,0,1.36,1.8,7,7,0,0,0,6.69,2.13l.23-.06a6.37,6.37,0,0,0,.66-.21l.35-.13a10.57,10.57,0,0,0,2.46-1.51,40.24,40.24,0,0,0,4.26-4.68c.64-.81,1.27-1.63,1.89-2.45.21-.3.43-.6.67-.92v0q1.55-2.1,3-4.22c1.79-2.54,3.56-5.1,5.37-7.62l.17-.21.15-.23A3.48,3.48,0,0,0,33,28.69Z"/></g></g></svg>