<svg xmlns="http://www.w3.org/2000/svg" viewBox="0 0 283.46 283.46"><defs><style>.cls-1{fill:#fff;}.cls-2{fill:#6bc072;}</style></defs><title>Asset 3Circle</title><g id="Layer_2" data-name="Layer 2"><g id="Layer_1-2" data-name="Layer 1"><rect class="cls-1" width="283.46" height="283.46" rx="141.73"/><path class="cls-2" d="M271,83.42a72,72,0,0,0-13.1,2.23,57.57,57.57,0,0,1-29.77,0,73.53,73.53,0,0,0-37.72,0,57.57,57.57,0,0,1-29.77,0,73.49,73.49,0,0,0-37.71,0,57.61,57.61,0,0,1-29.78,0,73.49,73.49,0,0,0-37.71,0,57.61,57.61,0,0,1-29.78,0,72,72,0,0,0-13.1-2.23A141.19,141.19,0,0,0,0,141.73H0A141.73,141.73,0,0,0,141.73,283.46h0A141.72,141.72,0,0,0,283.46,141.73h0A141.19,141.19,0,0,0,271,83.42Z"/></g></g></svg>