<svg xmlns="http://www.w3.org/2000/svg" viewBox="0 0 111.87 111.13"><defs><style>.cls-1{fill:#fff;}</style></defs><title>Asset 1Circle</title><g id="Layer_2" data-name="Layer 2"><g id="Layer_1-2" data-name="Layer 1"><polygon class="cls-1" points="12.97 54.65 0 53 1.21 43.52 3.86 43.86 3.07 50.1 5.56 50.42 6.2 45.4 8.83 45.73 8.19 50.76 10.72 51.08 11.52 44.83 14.18 45.17 12.97 54.65"/><path class="cls-1" d="M20.49,30.79l-1.46,3-2.92-.36L14,37.75l2.08,2.07-1.46,3L4.91,32.86l1.84-3.73ZM8.13,32.16,12,36l1.5-3.06Z"/><path class="cls-1" d="M24.32,21.59c-.63-.62-1.5-.16-3.06.73-1.72,1-4,2-5.82.15s-1.6-4.11.68-6.4a9.92,9.92,0,0,1,4.27-2.66l1.49,2.39A9.61,9.61,0,0,0,18.08,18c-.81.82-.93,1.5-.42,2s1.68,0,3.1-.81c1.8-1,3.93-1.87,5.69-.11s1.66,4.35-.76,6.78a10.84,10.84,0,0,1-4.4,2.74l-1.52-2.39a9.82,9.82,0,0,0,4-2.32c.82-.83,1.09-1.72.53-2.28"/><polygon class="cls-1" points="35.64 12.38 37.91 16.79 35 18.28 32.73 13.86 24.97 8.74 28.12 7.13 32.88 10.49 32.84 4.7 35.97 3.09 35.64 12.38"/><path class="cls-1" d="M49,13.4l-3.82.51L43.38,1,47.27.43C51.56-.15,54.48,2,55,5.89s-1.6,6.9-6,7.51M47.41,2.08l-2,.28L46.67,12l2.14-.29c3.08-.42,4.87-2.33,4.44-5.5s-2.56-4.61-5.84-4.17"/><polygon class="cls-1" points="59.97 12.86 62.33 0 70.48 1.49 70.18 3.12 63.78 1.95 63.05 5.92 68.38 6.89 68.08 8.52 62.76 7.54 62.02 11.55 68.42 12.73 68.12 14.35 59.97 12.86"/><polygon class="cls-1" points="86.19 8.52 87.7 9.36 81.29 20.89 79.61 19.96 78.67 7.23 73.55 16.45 72.03 15.61 78.38 4.18 80.1 5.13 81.07 17.73 86.19 8.52"/><polygon class="cls-1" points="96.81 20.03 88.34 27.66 87.17 26.35 95.64 18.73 92.57 15.32 93.82 14.21 101.12 22.32 99.88 23.44 96.81 20.03"/><path class="cls-1" d="M97.12,42.54l-.79-1.65L98.9,38.3l-2.44-5.11-3.63.36L92,31.89,106,30.7l.87,1.83Zm7.6-10.14L98.16,33l1.94,4.06Z"/><polygon class="cls-1" points="97.74 45.79 110.67 43.87 110.93 45.63 99.66 47.3 100.58 53.55 98.93 53.79 97.74 45.79"/><polygon class="cls-1" points="98.93 57.29 111.87 59.17 110.49 68.62 107.84 68.24 108.75 62.01 106.27 61.65 105.54 66.66 102.91 66.28 103.64 61.27 101.11 60.9 100.21 67.13 97.56 66.75 98.93 57.29"/><path class="cls-1" d="M91,81l1.5-2.94,2.92.41,2.21-4.32-2-2.1,1.51-2.94,9.52,10.09-1.9,3.7Zm12.38-1.15L99.61,76l-1.55,3Z"/><path class="cls-1" d="M87,90.16c.62.63,1.5.18,3.08-.68s4-1.93,5.81,0,1.54,4.13-.79,6.39A9.82,9.82,0,0,1,90.8,98.4L89.36,96a9.78,9.78,0,0,0,3.83-2.12c.82-.8,1-1.48.46-2s-1.69,0-3.12.75c-1.82,1-4,1.81-5.7,0s-1.57-4.38.89-6.77a10.65,10.65,0,0,1,4.44-2.66l1.47,2.42a9.67,9.67,0,0,0-4,2.25c-.84.81-1.12,1.7-.57,2.27"/><polygon class="cls-1" points="75.54 99.17 73.35 94.72 76.28 93.28 78.47 97.74 86.14 102.99 82.97 104.55 78.27 101.11 78.2 106.9 75.05 108.45 75.54 99.17"/><path class="cls-1" d="M62.61,97.88,66,97.46l1.57,13-3.53.43c-4.25.51-7.18-1.74-7.65-5.56-.49-4.09,1.76-6.89,6.18-7.43M64,109.63l2.12-.26L64.86,98.85l-2.16.26c-3.33.4-5.38,2.38-5,5.93.4,3.3,2.72,5,6.27,4.59"/><polygon class="cls-1" points="51.49 98.29 49.05 111.13 41.29 109.66 41.52 108.45 47.97 109.67 48.84 105.07 43.46 104.05 43.69 102.85 49.07 103.88 49.95 99.25 43.5 98.03 43.73 96.82 51.49 98.29"/><polygon class="cls-1" points="25.62 102.64 24.48 102.01 30.88 90.46 32.14 91.16 33.21 104.69 38.63 94.9 39.76 95.53 33.43 106.96 32.12 106.23 31.05 92.83 25.62 102.64"/><polygon class="cls-1" points="15.22 91.93 23.94 83.96 24.84 84.94 16.12 92.92 19.23 96.31 18.3 97.16 11.19 89.38 12.11 88.53 15.22 91.93"/><path class="cls-1" d="M15,69.25l.6,1.22-2.76,2.89,2.6,5.31,4-.4.6,1.22L6.11,80.78l-.69-1.41ZM7,79.53l7.21-.74L12,74.3Z"/><polygon class="cls-1" points="14.28 65.78 1.38 67.88 1.17 66.56 12.83 64.66 11.79 58.28 13.03 58.08 14.28 65.78"/><path class="cls-1" d="M55.89,68.68c-.69.92-1.23,1.72-1.85,2.45a30.73,30.73,0,0,1-3.38,3.72c-3,2.52-6.79,2.07-8.81-1.27A25,25,0,0,1,39,66.5a67.49,67.49,0,0,1-1.16-21.74c.42-4.78,3.15-7.32,7.45-8.48a39.44,39.44,0,0,1,21,0,17.88,17.88,0,0,1,4.2,1.86c2.53,1.45,3.2,4,3.53,6.66a68.56,68.56,0,0,1-.42,18.6A24.55,24.55,0,0,1,70.5,73c-2.46,3.91-6.24,4.54-9.69,1.47a40.3,40.3,0,0,1-3.6-4.1c-.42-.49-.79-1-1.32-1.71M70.63,51.42c-.06-1.06-.1-3.07-.27-5.07C70,42.2,69.11,41,65.49,40a35.57,35.57,0,0,0-19.36.09,5.69,5.69,0,0,0-4.6,5.54,63.24,63.24,0,0,0,1.34,20.76,19.23,19.23,0,0,0,2.12,5c.82,1.45,2,1.53,3.28.48A11,11,0,0,0,50,70c.95-1.22,1.8-2.52,2.75-3.73a3.78,3.78,0,0,1,6.22,0c.35.44.63.93,1,1.36a47.59,47.59,0,0,0,3.49,4c1.37,1.32,2.57,1.11,3.6-.48a12.81,12.81,0,0,0,1.32-2.77c1.78-5.2,2.12-10.6,2.23-17"/><path class="cls-1" d="M62.68,56.82a2.63,2.63,0,0,0-1.8-1.49l-.19,0h0l0,0s0,0,0,0c-.88,1.12-1.73,2.26-2.57,3.42l0,.05-1.37,1.93c-2,2.87-4,5.78-6.09,8.58-.93,1.24-3,4.34-4.87,2.91a8,8,0,0,1-1.85-3c-.4-.9-.73-2-1-2.82,0,0-.1,0-.23,0A2.69,2.69,0,0,0,40,69.89a14.17,14.17,0,0,0,2.73,4.8,5.32,5.32,0,0,0,6,1.36c2-.82,3.47-2.57,4.79-4.2,3.15-3.91,5.91-8.11,8.84-12.18l.12-.16a.94.94,0,0,0,.12-.18,2.67,2.67,0,0,0,.13-2.51"/></g></g></svg>