<svg xmlns="http://www.w3.org/2000/svg" viewBox="0 0 390.58 112.56"><defs><style>.cls-1{fill:#fff;}.cls-2{fill:#f2f2f3;}.cls-3{fill:#4956a6;}.cls-4{fill:#eff7fd;stroke:#f7f8f8;stroke-miterlimit:10;stroke-width:0.13px;}.cls-5{fill:#b9e5f5;}.cls-6{fill:#f05b8e;}</style></defs><title>Asset 1Brush</title><g id="Layer_2" data-name="Layer 2"><g id="Layer_1-2" data-name="Layer 1"><path class="cls-1" d="M287.77,52.87c.2-3.07.69-6.4,3.12-8.31s7.33-.52,8.1,2.38c3-4.15,10.54-4.27,12.88.31,3-5,10.86-4.42,14.19.35,2.69-4.42,11-4.48,13,.31.3-2.27,3.07-4.11,6.07-3.9,2.75.19,5.22,1.56,6,4.19a6.45,6.45,0,0,1,4.65-4.15,7.3,7.3,0,0,1,7.76,4.45,5.83,5.83,0,0,1,6-3.86,7.24,7.24,0,0,1,6.39,4.16c.24-3.56,7.52-5.3,10.37.11,1.66,3.15,0,38.6-1.7,54.41l-98-2.36C286,85.51,286.61,70.05,287.77,52.87Z"/><path class="cls-2" d="M374.82,55.4c-.74,7.08-.47,14.33-.64,21.45-.18,7.48-.7,15.05-.34,22.52a1.48,1.48,0,0,0,3,.07c.47-7.78.22-15.67.28-23.47.06-6.88.36-13.93-.55-20.76-.13-1-1.62-.72-1.71.19Z"/><path class="cls-2" d="M363.35,63.69c-2,12.7-2.38,26.07-2.19,38.92a1.64,1.64,0,0,0,3.27.08,351.81,351.81,0,0,0,.19-39,.64.64,0,0,0-1.27,0Z"/><path class="cls-2" d="M323.44,57.71c-.84,7.53-1.27,15.06-1.5,22.63-.21,6.81-1,14,.11,20.78.25,1.58,2.42,1.07,2.59-.29.9-7,0-14.47.07-21.54s.16-14.36.11-21.55a.69.69,0,0,0-1.38,0Z"/><path class="cls-2" d="M310.27,62.81c-2.08,11.52-2.07,24.19-1.4,35.87.11,1.93,3,2.06,3,.08.15-11.82.18-23.94-.36-35.75,0-.68-1.14-1-1.28-.2Z"/><path class="cls-2" d="M297.5,52.66a268.63,268.63,0,0,0-1.65,43.93,1.43,1.43,0,0,0,2.85.07c.33-14.49,1.19-29.53-.17-44a.52.52,0,0,0-1,0Z"/><path class="cls-3" d="M385.81,108.52c-19,4.78-38.56,4.11-58,3.86-15.92-.21-31.24-.2-46.58-4.76C259.05,101,237.66,91,214.31,89.5c-30.72-1.92-61.74,3-92.32,5.45-37.22,3-74.48,5.38-111.66,8.87C4.63,104.35-.12,98.22,0,93c.15-6.27,5.12-9.79,10.84-10.32,32.94-3.09,66-5.37,98.94-7.88,30.88-2.36,61.95-6.83,92.95-6.8,14.45,0,29.21,1.35,43.11,5.49,10.13,3,20,7.2,30.06,10.38q7.58,2.39,15.18,4.65c1.64.49,3.34.89,5,1.44,2.78,1-2.2,0,.77.16,7.73.53,15.43,1,23.19,1.18,22,.54,44.83-1,66.11,4.76,6.25,1.69,5.77,10.95-.3,12.48Z"/><path class="cls-1" d="M382.17,101.33a28.06,28.06,0,0,0-3.29-.37c-1.25-.08-2.49-.3-3.61.42a2.31,2.31,0,0,0,.44,4.16c1.15.48,2.31.07,3.45-.22a26.59,26.59,0,0,0,2.93-.85,1.71,1.71,0,0,0,1.24-1.54,1.65,1.65,0,0,0-1.16-1.6Z"/><path class="cls-1" d="M367.26,103.41a24.35,24.35,0,0,0-7.23.13c-2.52.32-5.49.44-7.71,1.72-1.35.78-1.37,3.29.38,3.63,2.46.47,5-.2,7.41-.67a24.63,24.63,0,0,0,7.42-2.3c.93-.52.94-2.29-.27-2.51Z"/><path class="cls-1" d="M233.37,73.72c-3.76-1.21-8.05-3-12.1-2.68-1.93.17-2.88,3.23-.59,3.71,3.92.81,8,.47,11.89,1.62a1.38,1.38,0,0,0,.8-2.65Z"/><path class="cls-1" d="M214.53,72.74c.16.18.13.14-.07-.12a3.8,3.8,0,0,0-.38-.29l.43.45a1.82,1.82,0,0,0-.73-.7l-.35-.17c.11.11.09.1-.05,0a4.47,4.47,0,0,0-1.32-.72,2.26,2.26,0,0,0-1.91.29,2.16,2.16,0,0,0-.09,3.68,2.27,2.27,0,0,0,1.89.38,4.63,4.63,0,0,0,1.36-.66c.15-.12.16-.13.05,0l.36-.16a1.93,1.93,0,0,0,.76-.66l-.45.42a2.7,2.7,0,0,0,.39-.27c.22-.25.24-.28.07-.11a.77.77,0,0,0,0-1.31Z"/><path class="cls-1" d="M36.75,83.87c-9.54-.43-21.16.44-30.22,3.54-2.08.71-2.1,4.46.47,4.2,9.89-1,20.26-3.38,30-5.4a1.19,1.19,0,0,0-.26-2.34Z"/><path class="cls-1" d="M368.28,50.48a6.58,6.58,0,0,0-.93,3,2,2,0,0,0,1.9,2,2,2,0,0,0,2-1.91,6.7,6.7,0,0,0-.8-3,1.26,1.26,0,0,0-2.17-.06Z"/><path class="cls-1" d="M382.72,50.07a2.08,2.08,0,0,0-1.58,1,2,2,0,0,0,.14,2.56,1.52,1.52,0,0,0,2.58-1,2.18,2.18,0,0,0-.2-.94s-.14-.33-.12-.22,0,.08,0-.06.13-.36,0-.18a.79.79,0,0,0-.86-1.18Z"/><path class="cls-1" d="M356.62,50.42a4.84,4.84,0,0,1-.4.95,3.51,3.51,0,0,0-.16,2.37,2.09,2.09,0,0,0,4,.1,3.42,3.42,0,0,0-.05-2.38,4.72,4.72,0,0,1-.35-1,1.6,1.6,0,0,0-3.06-.07Z"/><path class="cls-1" d="M316.81,49.2c-.31.45-.61.91-.92,1.37a4.71,4.71,0,0,0-.66,2.2,2,2,0,0,0,3.95.63,4.35,4.35,0,0,0,.23-2.29c-.07-.47-.12-1-.2-1.54-.19-1.2-1.81-1.22-2.4-.37Z"/><path class="cls-1" d="M304,48.52c-1.82.28-2.54,2.3-2.27,3.91a2.19,2.19,0,1,0,4-1.59c-.15-.21-.06,0,0,.11-.09-.32-.05.07,0,.19s0,0,0-.11-.21.35,0,0a1.66,1.66,0,0,0-.09-1.85,1.7,1.7,0,0,0-1.73-.63Z"/><path class="cls-1" d="M292.53,48.69a4.46,4.46,0,0,0-1.72,2.07,3.61,3.61,0,0,0,.25,2.91c.73,1.58,3.3.88,3.27-.8,0-.48.06-1,.05-1.45a3.62,3.62,0,0,1,.11-1.15c.31-1-.95-2.29-2-1.58Z"/><path class="cls-4" d="M377.74.22a.76.76,0,0,0-1.14.29c-1.52,6.44-7.23,10.33-13.71,13.43-8.49,3.85-17.59,2.56-25.34-.69-5.51-2.3-12.78-5.86-19-6.87-12.17-2-24.68,8.15-28.35,17.93-2,5.35-2.36,11.35-.06,16.35.15.32.7-.64,1-.92,4.07-4.12,9.69-5.76,15.82-5.5,5.27.23,8.15,1.83,12.15,4.15,7.13,4.12,18.05,6.18,27,6.22,14.7.06,30.43-5.89,35.88-18.82A23.54,23.54,0,0,0,377.74.22Z"/><path class="cls-5" d="M295.91,24.22A23.46,23.46,0,0,1,304.45,17c3.77-1.76,7.82-3,11.76-2.31,9.35,1.69,18.8,7.45,28.59,8.16,5.81.42,12.3-1,17.77-3.21,4.85-1.94,8.89-4.82,11.33-8.94A24.74,24.74,0,0,0,377.23.08a.68.68,0,0,0-.63.43c-1.52,6.44-7.23,10.33-13.71,13.43-8.49,3.85-17.59,2.56-25.34-.69-5.51-2.3-12.78-5.86-19-6.87-12.17-2-24.68,8.15-28.35,17.93A23,23,0,0,0,289,37.46,46.86,46.86,0,0,1,295.91,24.22Z"/><path class="cls-6" d="M363.73,30.72c-10.2,5.46-20.12,4.71-27.89,2.21-6.69-2.16-18.29-6.69-26.44-6.21-8.9.53-16.14,5.68-18.31,13,4.07-4.12,9.69-5.76,15.82-5.5,5.27.23,8.15,1.83,12.15,4.15,7.13,4.12,18.05,6.18,27,6.22,14.7.06,30.43-5.89,35.88-18.82a23.77,23.77,0,0,0,.08-19C380.55,15.81,371,26.83,363.73,30.72Z"/></g></g></svg>