<svg id="Layer_1" data-name="Layer 1" xmlns="http://www.w3.org/2000/svg" viewBox="0 0 388.75 450.79"><defs><style>.cls-1{fill:#fff;}.cls-2{fill:#6bc072;}.cls-3{font-size:12px;fill:#231f20;font-family:Gotham-Medium, Gotham;font-weight:500;}.cls-4{letter-spacing:-0.02em;}.cls-5{letter-spacing:-0.01em;}.cls-6{letter-spacing:-0.02em;}.cls-7{letter-spacing:0em;}.cls-8{letter-spacing:-0.02em;}.cls-9{letter-spacing:-0.02em;}.cls-10{letter-spacing:-0.01em;}</style></defs><title>Circle</title><rect class="cls-1" x="100.5" y="167.33" width="283.46" height="283.46" rx="141.73"/><path class="cls-2" d="M-25.45,740" transform="translate(456.08 -487.22)"/><path class="cls-2" d="M557.77,631.1" transform="translate(456.08 -487.22)"/><path class="cls-2" d="M-84.63,738a72,72,0,0,0-13.1,2.23,57.61,57.61,0,0,1-29.78,0,72.91,72.91,0,0,0-18.85-2.46,72.93,72.93,0,0,0-18.86,2.46,57.61,57.61,0,0,1-29.78,0,72.91,72.91,0,0,0-18.85-2.46,72.93,72.93,0,0,0-18.86,2.46,57.57,57.57,0,0,1-29.77,0,73,73,0,0,0-18.86-2.46,72.93,72.93,0,0,0-18.86,2.46,57.57,57.57,0,0,1-29.77,0,72.14,72.14,0,0,0-13.1-2.23,141.23,141.23,0,0,0-12.51,58.32h0A141.73,141.73,0,0,0-213.85,938h0A141.74,141.74,0,0,0-72.12,796.29h0A141.39,141.39,0,0,0-84.63,738Z" transform="translate(456.08 -487.22)"/><text class="cls-3" transform="translate(0 10.2)"><tspan class="cls-4">7</tspan><tspan x="7.07" y="0">0% of the popul</tspan><tspan class="cls-5" x="103.58" y="0">a</tspan><tspan x="110.57" y="0">tion do not ma</tspan><tspan class="cls-6" x="199.65" y="0">k</tspan><tspan class="cls-7" x="206.34" y="0">e </tspan><tspan class="cls-8" x="217.19" y="0">r</tspan><tspan x="221.93" y="0">egular visits </tspan><tspan class="cls-9" x="298.21" y="0">t</tspan><tspan x="302.95" y="0">o the denti</tspan><tspan class="cls-10" x="368.72" y="0">s</tspan><tspan x="374.6" y="0">ts.</tspan></text></svg>