<svg id="Layer_1" data-name="Layer 1" xmlns="http://www.w3.org/2000/svg" viewBox="0 0 1080 411.83"><title>Artboard 5</title><path d="M192,263.79c-3.07,4.12-5.45,7.68-8.21,10.91-4.86,5.67-9.38,11.82-15.05,16.55-13.41,11.21-30.19,9.2-39.22-5.65a111.27,111.27,0,0,1-12.78-31.48c-7.59-31.83-8.09-64.16-5.2-96.73,1.89-21.32,14.06-32.59,33.16-37.77a175.64,175.64,0,0,1,93.62-.18,81.15,81.15,0,0,1,18.72,8.27c11.25,6.48,14.25,17.74,15.7,29.64,3.39,27.68,2.27,55.3-1.87,82.76-2.27,15-5.58,29.87-13.86,43-10.95,17.39-27.74,20.18-43.12,6.5-6-5.33-10.76-12.07-16-18.22C196.05,269.24,194.4,266.89,192,263.79ZM257.61,187c-.24-4.73-.43-13.69-1.21-22.59-1.61-18.46-5.54-24-21.65-28.41a158.33,158.33,0,0,0-86.16.41c-12.75,3.6-19.25,11.12-20.45,24.66-2.76,31.15-1.49,62,5.94,92.34,1.9,7.74,5.46,15.27,9.44,22.22,3.68,6.45,8.86,6.82,14.62,2.14a49.76,49.76,0,0,0,7.78-8c4.23-5.4,8-11.17,12.21-16.58,7.58-9.69,20.21-9.61,27.71,0,1.53,2,2.81,4.14,4.42,6.05,5.09,6,9.86,12.41,15.54,17.83,6.12,5.83,11.42,4.93,16-2.16a56.41,56.41,0,0,0,5.87-12.32C255.6,239.47,257.12,215.42,257.61,187Z"/><path d="M222.24,211a11.52,11.52,0,0,0-8-6.6,3.56,3.56,0,0,0-.83-.17h0l-.1-.1c0,.07-.1.1-.1.17-3.93,5-7.69,10.06-11.42,15.21l-.16.2c-2,2.84-4.06,5.74-6.11,8.61-9,12.78-17.72,25.72-27.13,38.19-4.12,5.48-13.27,19.28-21.65,12.94-4-3-6.24-9.11-8.22-13.5-1.78-4-3.27-8.65-4.55-12.54,0-.13-.43-.2-1-.23a12,12,0,0,0-11.71,16c2.9,7.89,6.8,15.55,12.18,21.33A23.67,23.67,0,0,0,160,296.6c8.88-3.63,15.44-11.42,21.32-18.72,14-17.36,26.3-36.07,39.31-54.16.2-.23.39-.49.56-.72s.36-.53.53-.79A11.86,11.86,0,0,0,222.24,211Z"/><path d="M331.77,240.77V156.91h57.16v13.82H347.87V191.8h33.68v13.82H347.87V227h41.06v13.82Z"/><path d="M436,233.66c-4.43,5.36-9.79,9.12-17.44,9.12-11.14,0-19.19-7.65-19.19-17.44,0-11.41,8.32-21.07,36.63-22v-1.47c0-8.32-3.49-11.81-12.34-11.81-6.31,0-13.95,2.82-20.53,6.58l-3.22-12.48a51.39,51.39,0,0,1,25.9-7.25c19.05,0,26.43,8.46,26,25.5v22.13c0,4.7.81,5.37,5.51,5.64l-1.21,11.94c-11.81,1.34-17.31-2.28-19.59-8.45Zm0-22c-15.43,1.88-21.06,5-21.06,11.54,0,4.7,3.62,8.05,9.26,8.05a15.83,15.83,0,0,0,11.8-5.36Z"/><path d="M487.28,242.91c-8,0-17.85-2.28-24-5.76l3.49-12.35a45,45,0,0,0,20.93,5.77c6.17,0,10.2-2.55,10.2-6.84,0-4.83-5.24-6.58-12.48-8.32-11.67-2.68-20.93-7.51-20.93-19.19s9.79-19.32,24.69-19.32c7.64,0,16.77,2,22.54,5l-3.49,12.34c-6-3.08-14-5.1-19.46-5.1-5.77,0-9.25,2.15-9.25,6.17,0,4.7,5.23,6.31,12.47,8.05,11.81,2.82,21.07,7.38,21.07,19.46C513,234.33,503.11,242.91,487.28,242.91Z"/><path d="M557.72,239.56l-3.62,9.66c-6.17,16.91-13.15,22-24.56,22a36.88,36.88,0,0,1-15.69-3.63l4.69-13c3.62,1.74,6.58,3,9.8,3,4.56,0,7-2,10.33-10.47l2.68-7.11-24.15-61h17l15.43,44.27,14.76-44.27h16.9Z"/><path d="M618.1,240.77H590.73V156.91h28.44c28.58,0,45.22,16.37,45.22,41.33C664.39,224.13,647.89,240.77,618.1,240.77Zm.13-70H607.1V227H619c17.71,0,29-9.26,29-27.91C648,180.12,637.42,170.73,618.23,170.73Z"/><path d="M690.29,213.26c.67,10.07,7.51,16.91,18.51,16.91a38,38,0,0,0,19.32-5.64l2,13.15c-5.9,3.22-14.08,5.1-22.4,5.1-19.86,0-33-12.61-33-32.33,0-20.13,13.42-33.55,31.94-33.55,16.36,0,25.49,9.93,25.49,25.09a41.16,41.16,0,0,1-1.34,10.33l-40.52.54Zm27-9.79V202.4c0-8.32-3.62-13.56-11.8-13.56-8.72,0-14,7.12-14.76,14.76Z"/><path d="M785.55,240.77v-37.7c0-9.13-3.62-12.21-10.73-12.21a20.71,20.71,0,0,0-13.69,5.77v44.14H745.3V179.18L761.13,177v9.79c5.5-6,12.88-9.93,20.39-9.93,12.48,0,19.86,8,19.86,21.34v42.53Z"/><path d="M839.76,242.78c-13.82,0-21.07-6-20.53-20.93l.94-29.11-9.66-1.08.4-10.06,9.66-3.09.27-13.68h15.29l-.26,14.49h17.44l-.4,13h-18l-.81,28.58c-.13,5.77,2.82,8.45,8.19,8.45a30.91,30.91,0,0,0,9.66-1.87l2.14,12.88A41.85,41.85,0,0,1,839.76,242.78Z"/><path d="M898.39,233.66C894,239,888.6,242.78,881,242.78c-11.14,0-19.19-7.65-19.19-17.44,0-11.41,8.32-21.07,36.63-22v-1.47c0-8.32-3.49-11.81-12.34-11.81-6.31,0-14,2.82-20.53,6.58l-3.22-12.48a51.38,51.38,0,0,1,25.89-7.25c19.06,0,26.43,8.46,26,25.5v22.13c0,4.7.81,5.37,5.5,5.64l-1.2,11.94c-11.81,1.34-17.31-2.28-19.59-8.45Zm0-22c-15.43,1.88-21.06,5-21.06,11.54,0,4.7,3.62,8.05,9.25,8.05a15.85,15.85,0,0,0,11.81-5.36Z"/><path d="M930.46,240.77V151.14L946.29,149v91.77Z"/><path d="M615.74,279.55V267.49c0-3.22-1.35-5-4.29-5a8.77,8.77,0,0,0-5.64,2.62,10.51,10.51,0,0,1,.2,2.22v12.22h-1.62V267.49c0-3.22-1.35-5-4.29-5a8.62,8.62,0,0,0-5.44,2.38v14.68H593V261.5l1.63-.52v2.46A9.18,9.18,0,0,1,600.3,261c2.42,0,4.24,1,5.12,3a9.4,9.4,0,0,1,6.23-3c3.57,0,5.71,2.14,5.71,6.15v12.42Z"/><path d="M632.85,277.09a7.71,7.71,0,0,1-5.68,2.86c-3.21,0-5.67-1.94-5.67-4.8,0-3.38,2.77-5.88,11.19-6.43v-1.67c0-2.78-1.35-4.56-4.45-4.56a11.17,11.17,0,0,0-6.11,2.34l-.4-1.63a12.87,12.87,0,0,1,6.63-2.22c3.45,0,5.95,1.67,5.95,5.91v9.85c0,1.11.28,1.94,1.91,1.9l-.12,1.23c-1.79.08-3.1-.75-3.21-2.78Zm-.16-7.18c-7.11.71-9.57,2.42-9.57,5.08,0,2.26,2,3.53,4.25,3.53a7.23,7.23,0,0,0,5.32-2.82Z"/><path d="M641.66,270.39v9.16H640V252.8l1.63-.51v17.54h.08l8.81-8.45h2.1l-9.17,8.73,9.21,9.44h-2.14l-8.81-9.16Z"/><path d="M657.26,257.05a1.2,1.2,0,0,1-1.15-1.27,1.16,1.16,0,0,1,1.15-1.19,1.2,1.2,0,0,1,1.19,1.19A1.24,1.24,0,0,1,657.26,257.05Zm-.8,22.5V261.5l1.63-.52v18.57Z"/><path d="M676.23,279.55V267.49c0-3.22-1.35-5-4.29-5-2.06,0-4.28,1.15-6.27,3.13v13.93h-1.62V261.5l1.62-.52v3.17a10,10,0,0,1,6.47-3.17c3.57,0,5.72,2.14,5.72,6.15v12.42Z"/><path d="M682.38,276.62c0-1.55,1.47-2.7,2.94-3.38a6.67,6.67,0,0,1-2.82-5.47,6.57,6.57,0,0,1,6.87-6.79,7,7,0,0,1,3.93,1.07l5.4-.32.12,1.67-4.53-.2a6.89,6.89,0,0,1,1.71,4.45c0,4.12-3,6.7-6.91,6.7a7.39,7.39,0,0,1-2.82-.59c-1.15.55-2.26,1.35-2.26,2.5s1,2,4.09,2h3c5.12,0,7.18,1.91,7.18,4.65,0,4-4.68,6.47-9.33,6.47-5,0-8-2.27-8-5.28,0-2.11,1.78-4.05,4-4.8C683.42,278.88,682.38,278,682.38,276.62Zm.12,7.34c0,2.34,2.39,4.09,6.63,4.09s7.62-2.23,7.62-4.92c0-2.35-2.06-3.34-5.63-3.34-1.27,0-3.06,0-4.33-.08C684.25,280.35,682.5,282.17,682.5,284ZM689.21,273a5,5,0,0,0,5.16-5.31c0-3-1.79-5.4-5.12-5.4s-5.16,2.34-5.16,5.44A5,5,0,0,0,689.21,273Z"/><path d="M723.35,252.8l1.62-.51v27.26h-1.62v-1.78a8.41,8.41,0,0,1-5.48,2.18c-4.68,0-8.18-3.65-8.18-9.21,0-5.79,3.7-9.56,8.74-9.56a10,10,0,0,1,4.92,1.39Zm-5,9.85c-4.09,0-6.95,3.21-6.95,8.09,0,4.41,2.62,7.78,6.63,7.78a8,8,0,0,0,5.36-2.34v-12A9.06,9.06,0,0,0,718.31,262.65Z"/><path d="M731.29,270.46c0,4.61,2.54,8,6.7,8a9.31,9.31,0,0,0,5.08-1.51l.36,1.47a10.25,10.25,0,0,1-5.56,1.55c-5,0-8.25-3.89-8.25-9.41S733,261,737.76,261a6,6,0,0,1,6.31,6.27,13.42,13.42,0,0,1-.4,2.86l-12.38.08Zm11-1.74a7.7,7.7,0,0,0,.12-1.35c0-2.86-1.79-4.88-4.68-4.88-3.38,0-5.76,2.54-6.31,6.23Z"/><path d="M761.25,279.55V267.49c0-3.22-1.34-5-4.28-5-2.06,0-4.29,1.15-6.27,3.13v13.93h-1.63V261.5l1.63-.52v3.17a10,10,0,0,1,6.47-3.17c3.57,0,5.71,2.14,5.71,6.15v12.42Z"/><path d="M773,280.15c-3.37,0-4.6-2.1-4.48-5.8l.32-11.31-2.5-.16.12-1,2.42-.31.12-4.33h1.58l-.12,4.37H777l-.11,1.38h-6.39l-.32,11.43c-.08,3,.79,4.29,2.93,4.29a8.1,8.1,0,0,0,3.7-1.07l.31,1.39A8.51,8.51,0,0,1,773,280.15Z"/><path d="M791,277.09a7.67,7.67,0,0,1-5.67,2.86c-3.22,0-5.68-1.94-5.68-4.8,0-3.38,2.78-5.88,11.2-6.43v-1.67c0-2.78-1.35-4.56-4.45-4.56a11.17,11.17,0,0,0-6.11,2.34l-.4-1.63a12.87,12.87,0,0,1,6.63-2.22c3.45,0,6,1.67,6,5.91v9.85c0,1.11.28,1.94,1.91,1.9l-.12,1.23c-1.79.08-3.1-.75-3.22-2.78Zm-.15-7.18c-7.11.71-9.57,2.42-9.57,5.08,0,2.26,2,3.53,4.25,3.53a7.25,7.25,0,0,0,5.32-2.82Z"/><path d="M798.21,279.55V252.8l1.63-.51v27.26Z"/><path d="M822.34,280c-5.16,0-8.81-3.89-8.81-9.41s3.61-9.56,8.61-9.56a9.9,9.9,0,0,1,5.48,1.51l-.4,1.47a9.38,9.38,0,0,0-5.08-1.47c-4.08,0-6.94,3.37-6.94,8s2.82,8,7.14,8a9.42,9.42,0,0,0,4.85-1.51l.39,1.47A10.07,10.07,0,0,1,822.34,280Z"/><path d="M842.15,277.09a7.67,7.67,0,0,1-5.68,2.86c-3.21,0-5.67-1.94-5.67-4.8,0-3.38,2.78-5.88,11.19-6.43v-1.67c0-2.78-1.35-4.56-4.44-4.56a11.17,11.17,0,0,0-6.12,2.34L831,263.2a12.81,12.81,0,0,1,6.63-2.22c3.45,0,6,1.67,6,5.91v9.85c0,1.11.28,1.94,1.9,1.9l-.12,1.23a2.74,2.74,0,0,1-3.21-2.78Zm-.16-7.18c-7.1.71-9.56,2.42-9.56,5.08,0,2.26,1.94,3.53,4.24,3.53A7.23,7.23,0,0,0,842,275.7Z"/><path d="M851,279.55h-1.63V261.5L851,261v4.52c1.07-2.66,3.14-4.52,5.6-4.52a6.71,6.71,0,0,1,3,.75l-.48,1.47a5.18,5.18,0,0,0-2.66-.71c-2.06,0-3.93,1.55-5.44,5.63Z"/><path d="M862.51,270.46c0,4.61,2.54,8,6.71,8a9.31,9.31,0,0,0,5.08-1.51l.36,1.47A10.27,10.27,0,0,1,869.1,280c-5,0-8.25-3.89-8.25-9.41S864.22,261,869,261a6,6,0,0,1,6.31,6.27,14.08,14.08,0,0,1-.39,2.86l-12.39.08Zm11-1.74a7.7,7.7,0,0,0,.12-1.35c0-2.86-1.79-4.88-4.69-4.88-3.37,0-5.75,2.54-6.31,6.23Z"/><path d="M889.82,270.46c0,4.61,2.54,8,6.71,8a9.34,9.34,0,0,0,5.08-1.51l.36,1.47a10.27,10.27,0,0,1-5.56,1.55c-5,0-8.25-3.89-8.25-9.41s3.37-9.56,8.13-9.56a6,6,0,0,1,6.31,6.27,14.08,14.08,0,0,1-.39,2.86l-12.39.08Zm11-1.74a7.7,7.7,0,0,0,.12-1.35c0-2.86-1.79-4.88-4.69-4.88-3.37,0-5.75,2.54-6.31,6.23Z"/><path d="M917.37,277.09a7.67,7.67,0,0,1-5.68,2.86c-3.21,0-5.67-1.94-5.67-4.8,0-3.38,2.78-5.88,11.19-6.43v-1.67c0-2.78-1.35-4.56-4.44-4.56a11.17,11.17,0,0,0-6.12,2.34l-.39-1.63a12.8,12.8,0,0,1,6.62-2.22c3.46,0,6,1.67,6,5.91v9.85c0,1.11.28,1.94,1.9,1.9l-.12,1.23a2.74,2.74,0,0,1-3.21-2.78Zm-.16-7.18c-7.1.71-9.56,2.42-9.56,5.08,0,2.26,1.94,3.53,4.24,3.53a7.23,7.23,0,0,0,5.32-2.82Z"/><path d="M928.52,280A10.52,10.52,0,0,1,923,278.4l.51-1.51a9.36,9.36,0,0,0,5.08,1.63c2.31,0,4.61-1.23,4.61-3.53,0-2.62-2.42-3.25-4.84-4.09s-5.12-2-5.12-5c0-3.25,2.58-4.92,5.71-4.92a11.85,11.85,0,0,1,5.16,1.31l-.56,1.47a9.64,9.64,0,0,0-4.76-1.39c-2.46,0-4.09,1.31-4.09,3.33,0,2.38,2.38,3.1,4.77,3.89s5.2,1.91,5.2,5.24S931.9,280,928.52,280Z"/><path d="M945.43,279l-1.7,4.64c-1.59,4.25-3.26,5.4-5.4,5.4a6.66,6.66,0,0,1-3.14-.71l.48-1.47a5.49,5.49,0,0,0,2.66.71c1.39,0,2.62-.79,4-4.48l1.35-3.66-7.11-18h1.75l6.19,15.91,6.07-15.91h1.71Z"/></svg>