<?xml version="1.0" encoding="utf-8"?>
<!-- Generator: Adobe Illustrator 24.0.1, SVG Export Plug-In . SVG Version: 6.00 Build 0)  -->
<svg version="1.1" id="Layer_1" xmlns="http://www.w3.org/2000/svg" xmlns:xlink="http://www.w3.org/1999/xlink" x="0px" y="0px"
	 viewBox="0 0 1080 411.8" style="enable-background:new 0 0 1080 411.8;" xml:space="preserve">
<style type="text/css">
	.st0{fill:#FFDE4E;}
	.st1{fill:#00E1B9;}
	.st2{fill:#5665DB;}
</style>
<title>Artboard 1</title>
<g>
	<path class="st0" d="M123.4,276.5c-3.7,5-6.6,9.4-10,13.3c-5.9,6.9-11.4,14.4-18.3,20.2c-16.3,13.7-36.8,11.2-47.8-6.9
		c-7.1-11.9-12.4-24.9-15.6-38.4c-9.3-38.8-9.9-78.2-6.3-117.9c2.3-26,17.1-39.7,40.4-46c37.3-10.4,76.8-10.5,114.1-0.2
		c8,2.4,15.7,5.8,22.8,10.1c13.7,7.9,17.4,21.6,19.1,36.1c4.1,33.7,2.8,67.4-2.3,100.9c-2.8,18.3-6.8,36.4-16.9,52.4
		c-13.3,21.2-33.8,24.6-52.6,7.9c-7.3-6.5-13.1-14.7-19.5-22.2C128.4,283.1,126.4,280.3,123.4,276.5z M203.4,182.9
		c-0.3-5.8-0.5-16.7-1.5-27.5c-2-22.5-6.8-29.3-26.4-34.6c-34.4-9.5-70.7-9.4-105,0.5C55,125.6,47,134.8,45.6,151.3
		c-3.4,38-1.8,75.6,7.2,112.6c2.3,9.4,6.7,18.6,11.5,27.1c4.5,7.9,10.8,8.3,17.8,2.6c3.5-2.9,6.7-6.2,9.5-9.8
		c5.2-6.6,9.8-13.6,14.9-20.2c9.2-11.8,24.6-11.7,33.8,0c1.9,2.4,3.4,5,5.4,7.4c6.2,7.3,12,15.1,18.9,21.7c7.5,7.1,13.9,6,19.5-2.6
		c3-4.7,5.4-9.7,7.2-15C201,246.8,202.8,217.5,203.4,182.9z"/>
	<path class="st1" d="M160.3,212.1c-1.8-4.1-5.4-7.1-9.8-8c-0.3-0.1-0.7-0.2-1-0.2l0,0l-0.1-0.1c0,0.1-0.1,0.1-0.1,0.2
		c-4.8,6.1-9.4,12.3-13.9,18.5l-0.2,0.2c-2.4,3.5-4.9,7-7.4,10.5c-11,15.6-21.6,31.4-33.1,46.6c-5,6.7-16.2,23.5-26.4,15.8
		c-4.9-3.7-7.6-11.1-10-16.5c-2.2-4.9-4-10.5-5.5-15.3c0-0.2-0.5-0.2-1.2-0.3c-8.1-0.3-14.8,6.1-15.1,14.1c-0.1,1.8,0.2,3.6,0.8,5.4
		c3.5,9.6,8.3,19,14.8,26c8.1,9.1,21.1,12,32.4,7.4c10.8-4.4,18.8-13.9,26-22.8c17.1-21.2,32.1-44,47.9-66c0.2-0.3,0.5-0.6,0.7-0.9
		s0.4-0.6,0.6-1C162.2,221.6,162.4,216.5,160.3,212.1z"/>
	<path class="st2" d="M279.8,262.3V160h69.7v16.8h-50.1v25.7h41.1v16.8h-41.1v26.1h50.1v16.8L279.8,262.3z"/>
	<path class="st2" d="M406.9,253.6c-5.4,6.5-11.9,11.1-21.3,11.1c-13.6,0-23.4-9.3-23.4-21.3c0-13.9,10.1-25.7,44.7-26.8v-1.8
		c0-10.1-4.3-14.4-15-14.4c-7.7,0-17,3.4-25,8l-3.9-15.2c9.6-5.7,20.5-8.7,31.6-8.8c23.2,0,32.2,10.3,31.7,31.1v27
		c0,5.7,1,6.5,6.7,6.9l-1.5,14.6c-14.4,1.6-21.1-2.8-23.9-10.3L406.9,253.6z M406.9,226.8c-18.8,2.3-25.7,6.1-25.7,14.1
		c0,5.7,4.4,9.8,11.3,9.8c5.5,0,10.7-2.4,14.4-6.5V226.8z"/>
	<path class="st2" d="M469.4,264.9c-9.8,0-21.8-2.8-29.3-7l4.3-15.1c7.8,4.4,16.6,6.8,25.5,7c7.5,0,12.4-3.1,12.4-8.3
		c0-5.9-6.4-8-15.2-10.1c-14.2-3.3-25.5-9.2-25.5-23.4c0-14.2,11.9-23.6,30.1-23.6c9.3,0,20.4,2.4,27.5,6.1l-4.3,15
		c-7.3-3.8-17.1-6.2-23.7-6.2c-7,0-11.3,2.6-11.3,7.5c0,5.7,6.4,7.7,15.2,9.8c14.4,3.4,25.7,9,25.7,23.7
		C500.8,254.4,488.7,264.9,469.4,264.9z"/>
	<path class="st2" d="M555.3,260.8l-4.4,11.8c-7.5,20.6-16,26.8-29.9,26.8c-6.6,0-13.2-1.6-19.1-4.4l5.7-15.8
		c4.4,2.1,8,3.7,11.9,3.7c5.6,0,8.5-2.4,12.6-12.8l3.3-8.7L505.9,187h20.7l18.8,54l18-54H584L555.3,260.8z"/>
	<path class="st2" d="M628.9,262.3h-33.4V160h34.7c34.8,0,55.1,20,55.1,50.4C685.3,242,665.2,262.3,628.9,262.3z M629.1,176.9h-13.6
		v68.6H630c21.6,0,35.4-11.3,35.4-34C665.4,188.3,652.5,176.9,629.1,176.9L629.1,176.9z"/>
	<path class="st2" d="M716.9,228.7c0.8,12.3,9.2,20.6,22.6,20.6c8.3-0.1,16.5-2.5,23.6-6.9l2.4,16c-7.2,3.9-17.2,6.2-27.3,6.2
		c-24.2,0-40.2-15.4-40.2-39.4c0-24.5,16.4-40.9,38.9-40.9c19.9,0,31.1,12.1,31.1,30.6c0,4.3-0.6,8.5-1.6,12.6l-49.4,0.7
		L716.9,228.7z M749.8,216.8v-1.3c0-10.1-4.4-16.5-14.4-16.5c-10.6,0-17.1,8.7-18,18L749.8,216.8z"/>
	<path class="st2" d="M833,262.3v-46c0-11.1-4.4-14.9-13.1-14.9c-6.2,0.2-12.2,2.7-16.7,7v53.8H784v-75.1l19.3-2.7v11.9
		c6.7-7.3,15.7-12.1,24.9-12.1c15.2,0,24.2,9.8,24.2,26v51.8L833,262.3z"/>
	<path class="st2" d="M899.1,264.7c-16.8,0-25.7-7.3-25-25.5l1.1-35.5l-11.8-1.3l0.5-12.3l11.8-3.8l0.3-16.7h18.6l-0.3,17.7h21.3
		l-0.5,15.8h-21.9l-1,34.8c-0.2,7,3.4,10.3,10,10.3c4-0.1,8-0.9,11.8-2.3l2.6,15.7C911,263.8,905.1,264.8,899.1,264.7z"/>
	<path class="st2" d="M970.6,253.6c-5.4,6.5-11.9,11.1-21.2,11.1c-13.6,0-23.4-9.3-23.4-21.3c0-13.9,10.1-25.7,44.7-26.8v-1.8
		c0-10.1-4.3-14.4-15-14.4c-7.7,0-17.1,3.4-25,8l-3.9-15.2c9.5-5.7,20.4-8.7,31.6-8.8c23.2,0,32.2,10.3,31.7,31.1v27
		c0,5.7,1,6.5,6.7,6.9l-1.5,14.6c-14.4,1.6-21.1-2.8-23.9-10.3L970.6,253.6z M970.6,226.8c-18.8,2.3-25.7,6.1-25.7,14.1
		c0,5.7,4.4,9.8,11.3,9.8c5.5,0,10.8-2.4,14.4-6.5V226.8z"/>
	<path class="st2" d="M1009.7,262.3V153l19.3-2.6v111.9L1009.7,262.3z"/>
</g>
</svg>
