<svg xmlns="http://www.w3.org/2000/svg" viewBox="0 0 512 512"><defs><style>.cls-1{fill:none;}.cls-2{fill:lime;}</style></defs><g id="Layer_2" data-name="Layer 2"><g id="Layer_1-2" data-name="Layer 1"><path class="cls-1" d="M256,48C141.13,48,48,141.12,48,256s93.13,208,208,208,208-93.13,208-208S370.87,48,256,48ZM369,209,241,337a24,24,0,0,1-33.94.06L207,337l-72-72a24,24,0,0,1,34-34l55,55L335,175a24,24,0,0,1,34,34Z"/><path class="cls-2" d="M352,168a24,24,0,0,0-17,7L224,286l-55-55a24,24,0,0,0-34,34l72,72a24,24,0,0,0,33.94.06L241,337,369,209a24,24,0,0,0-17-41Z"/><path class="cls-2" d="M256,0C114.62,0,0,114.62,0,256S114.62,512,256,512,512,397.38,512,256,397.38,0,256,0Zm0,464C141.13,464,48,370.87,48,256S141.13,48,256,48s208,93.12,208,208S370.87,464,256,464Z"/></g></g></svg>