<svg xmlns="http://www.w3.org/2000/svg" width="93.727" height="91.855" viewBox="0 0 93.727 91.855">
  <g id="Group_129" data-name="Group 129" transform="translate(0 -5.115)">
    <g id="Group_124" data-name="Group 124" transform="translate(69.788 53.717)">
      <g id="Group_123" data-name="Group 123" transform="translate(0 0)">
        <path id="Path_260" data-name="Path 260" d="M388.784,270.613a1.364,1.364,0,0,0-1.364,1.364,1.732,1.732,0,1,1-3.464,0,1.364,1.364,0,0,0-2.728,0,4.46,4.46,0,1,0,8.92,0A1.364,1.364,0,0,0,388.784,270.613Z" transform="translate(-381.228 -270.613)" fill="#fff"/>
      </g>
    </g>
    <g id="Group_126" data-name="Group 126" transform="translate(0 5.115)">
      <g id="Group_125" data-name="Group 125">
        <path id="Path_261" data-name="Path 261" d="M90.148,53.94l-3.839-1.23a1.606,1.606,0,0,1-1.036-1.05,24.753,24.753,0,0,0-3.629-7.179,26.343,26.343,0,0,0-2.424-2.86,33.834,33.834,0,0,0,.834-7.726C80,30.42,79.3,28.382,77.929,27.664c-.739-.387-2.987-1.564-15.154,4.006a4.427,4.427,0,0,0-.806.48c-.82-.22-1.659-.424-2.5-.607-.1-.022-.206-.042-.309-.063a18.581,18.581,0,0,0,1.67-6.908,1.364,1.364,0,0,0-2.725-.122,15.871,15.871,0,0,1-10.384,14.19,39.556,39.556,0,0,0-10.979,0A15.883,15.883,0,1,1,56.427,16.587a1.364,1.364,0,0,0,2.437-1.227A18.619,18.619,0,1,0,32.35,39.515h0q-1.272.331-2.522.746a1.364,1.364,0,0,0,.865,2.588,36.606,36.606,0,0,1,23.072,0,1.364,1.364,0,0,0,.865-2.588q-1.249-.417-2.522-.746h0a18.6,18.6,0,0,0,5.662-5.536c.376.073.749.15,1.117.229q.735.16,1.461.34c-.015.059-.031.118-.043.179a16.268,16.268,0,0,0,.128,8.3,9.875,9.875,0,0,0,3.617,5.085,11.475,11.475,0,0,0,6.714,2.131,9,9,0,0,0,4.351-1.006c1.282-.726,2.356-2.256,3.207-4.554q.59.688,1.117,1.41a22.025,22.025,0,0,1,3.23,6.388,4.338,4.338,0,0,0,2.807,2.83l3.839,1.23A2.415,2.415,0,0,1,91,58.846v6.366a2.415,2.415,0,0,1-1.684,2.308L83.13,69.5a4.214,4.214,0,0,0-2.358,1.915,27.187,27.187,0,0,1-11.357,10.33,2.137,2.137,0,0,0-1.121,1.507l-1.981,10.49a.613.613,0,0,1-.6.5H59.269a.613.613,0,0,1-.6-.5l-1.1-5.8a2.143,2.143,0,0,0-2.437-1.724,57.02,57.02,0,0,1-8.5.632,54.382,54.382,0,0,1-6.252-.353,2.161,2.161,0,0,0-2.364,1.734l-1.043,5.509a.613.613,0,0,1-.6.5H29.934a.614.614,0,0,1-.6-.5l-1.908-9.908a2.141,2.141,0,0,0-1.1-1.489c-8.7-4.646-13.3-12.409-13.3-22.448a26.222,26.222,0,0,1,3.3-13.331,23.8,23.8,0,0,1,8.865-8.655,1.364,1.364,0,0,0-1.366-2.362A25.963,25.963,0,0,0,10.642,54.94h0c-.131-.012-.263-.023-.394-.037a6.791,6.791,0,0,0-.5-2.722,5.587,5.587,0,0,0-4.142-3.617,3.77,3.77,0,0,0-3.55,1.581c-1.3,1.72-1.089,3.081-.682,3.919.687,1.416,2.453,2.417,5.384,3.047q-.121.181-.266.364a6.693,6.693,0,0,1-5.1,2.7A1.432,1.432,0,0,0,0,61.6V61.6a1.428,1.428,0,0,0,1.369,1.425q.147.007.307.007c1.676,0,4.366-.618,6.951-3.859a7.779,7.779,0,0,0,1-1.609q.386.044.742.076h0c-.046.739-.072,1.489-.072,2.252a28.11,28.11,0,0,0,4.024,15.053A27.577,27.577,0,0,0,24.8,84.618l1.854,9.632a3.343,3.343,0,0,0,3.282,2.72h6.441a3.343,3.343,0,0,0,3.282-2.72l.943-4.981a57.487,57.487,0,0,0,6.035.312A59.925,59.925,0,0,0,54.993,89l.994,5.251a3.344,3.344,0,0,0,3.282,2.719H65.71a3.344,3.344,0,0,0,3.283-2.72l1.929-10.213A29.74,29.74,0,0,0,83.133,72.783a1.491,1.491,0,0,1,.829-.683l6.185-1.981a5.136,5.136,0,0,0,3.58-4.906V58.846A5.135,5.135,0,0,0,90.148,53.94ZM77.12,37.729c-.525,4.49-1.933,8.33-3.348,9.132-1.608.911-5.322,1.087-8.11-.952s-3.72-5.714-2.687-10.619h0a1.646,1.646,0,0,1,.936-1.14C70.74,31.024,74.677,30,76.139,30a1.427,1.427,0,0,1,.495.066C77.073,30.536,77.65,33.2,77.12,37.729ZM3.83,52.873c-.141-.291.192-.8.4-1.082a1.088,1.088,0,0,1,.876-.533,1.024,1.024,0,0,1,.137.01A2.973,2.973,0,0,1,7.218,53.2,4.142,4.142,0,0,1,7.5,54.485C5.615,54.094,4.148,53.53,3.83,52.873Z" transform="translate(0 -5.115)" fill="#fff"/>
      </g>
    </g>
    <g id="Group_128" data-name="Group 128" transform="translate(37.133 13.873)">
      <g id="Group_127" data-name="Group 127">
        <path id="Path_262" data-name="Path 262" d="M209.266,61.255V56.374c1.683.12,2.309.89,2.886.89.721,0,1.058-.914,1.058-1.371,0-1.178-2.309-1.683-3.944-1.731v-.65c0-.289-.361-.553-.721-.553a.634.634,0,0,0-.7.553v.7c-2.284.241-4.569,1.443-4.569,4.473,0,3.078,2.4,3.944,4.569,4.713v5.651c-2.453-.192-3.1-1.876-3.9-1.876-.6,0-1.106.794-1.106,1.371,0,1.178,2.02,2.789,5,2.837h0v.745a.635.635,0,0,0,.7.553c.361,0,.721-.265.721-.553v-.818a4.658,4.658,0,0,0,4.376-4.954C213.642,63.083,211.358,62.024,209.266,61.255Zm-1.275-.457c-1.274-.481-2.308-.986-2.308-2.356,0-1.25.962-1.852,2.308-2.02Zm1.13,8.2V63.924c1.178.5,2.116,1.178,2.116,2.693A2.287,2.287,0,0,1,209.121,69Z" transform="translate(-202.845 -52.959)" fill="#fff"/>
      </g>
    </g>
  </g>
</svg>
