<svg xmlns="http://www.w3.org/2000/svg" viewBox="0 0 878.37 287.29"><defs><style>.cls-1{fill:#fff;}.cls-2{fill:#7fd0d8;}.cls-3{fill:#ee9092;}.cls-4{font-size:48.05px;font-family:KyrialDisplayProBlack, Kyrial Display Pro;}.cls-4,.cls-5{fill:#fdfdfc;}.cls-5{font-size:19.74px;font-family:KyrialDisplayProBold-Italic, Kyrial Display Pro;font-style:italic;}.cls-6{letter-spacing:0em;}.cls-7{letter-spacing:0em;}.cls-8{letter-spacing:-0.02em;}.cls-9{letter-spacing:0em;}.cls-10{letter-spacing:0em;}</style></defs><title>Asset 2TOOTHBRUSH</title><g id="Layer_2" data-name="Layer 2"><g id="Layer_1-2" data-name="Layer 1"><path class="cls-1" d="M760.76,107.44a9.34,9.34,0,0,1-8.6-4.56c-.3-.5-.57-1-.86-1.5l-4.55-8L731.09,65.7,715.88,38.85,712,32c-.17-.31-.34-.62-.5-.93-1.2-2.45-3.73-3.24-6.6-3.24-1.2,0-2.39,0-3.58-.08l-9-.26-14-.43-18.61-.58-22.7-.74-26.35-.86-29.55-1-32.3-1.09L514,21.57l-36.42-1.26L439.67,19,400.93,17.6l-39.22-1.42-39.23-1.45-38.81-1.46-37.92-1.46-36.59-1.45q-17.4-.69-34.79-1.42-16.27-.67-32.56-1.39Q126.89,6.91,112,6.22,98.57,5.61,85.18,5,73.63,4.38,62.09,3.76,52.55,3.25,43,2.66c-4.84-.3-9.67-.62-14.51-1-3.18-.25-6.37-.51-9.54-.88A49.8,49.8,0,0,0,12.53,0,11.73,11.73,0,0,0,2.41,5.53C.13,9.34,0,13.75,0,18V275.16a13.06,13.06,0,0,0,.36,3.1,11.75,11.75,0,0,0,3.25,5.8c2.46,2.32,6,3.23,9.47,3.23,1.49,0,3-.07,4.46-.12,3.33-.11,6.65-.24,10-.36q7.53-.27,15-.57l19.63-.76,23.74-.94,27.38-1.09L144,282.23l33.26-1.34,35.59-1.44,37.25-1.51,38.53-1.57,39.34-1.61,39.68-1.62,39.54-1.61,38.95-1.6L484,268.38l36.33-1.49,34.31-1.41,31.91-1.31L615.37,263l25.49-1.05,21.5-.89,17.13-.7,12.29-.51,7-.29c2.23-.08,4.32.45,6.56.07a11.41,11.41,0,0,0,8.17-6c1.48-2.63,2.92-5.28,4.37-7.92l16.34-29.51,15.42-27.83c1.08-1.94,2.22-3.87,3.23-5.84a3,3,0,0,1,1.3-1.36,11.56,11.56,0,0,1,4.74-1.06,13.42,13.42,0,0,1,3.23,0,3.44,3.44,0,0,1,2.54,2,13,13,0,0,1,.5,3.08c.45,2.27,3.43,2.38,5.48,2.18,2.43-.22,4.86-.47,7.29-.71l32-3.11,38-3.7,23.91-2.33c2.15-.21,4.49-.17,5.64-2.16.86-1.47.58-3.39.58-5q0-3.09,0-6.18,0-17.92,0-35.84c0-2.08,0-4.16,0-6.24,0-.67,0-1.33,0-2,0-1.11.34-2.18.34-3.29,0-2.91-2.13-4.89-5.26-5.53-1.26-.26-2.59-.34-3.88-.48q-14-1.48-27.89-3l-39.11-4.23-28.9-3.12c-1.32-.14-2.66-.25-4-.43-2.39-.34-4.09.42-4.35,2.77-.11,1,.16,2.72-.59,3.63S761.8,107.38,760.76,107.44Z"/><path class="cls-2" d="M703.48,251.23l-.65-211.65-4.14-.11-14.17-.42-21.06-.66q-13.66-.42-27.31-.87l-32.49-1.05-37-1.22L526,33.88l-43.6-1.48-45.71-1.59-47.26-1.68q-23.78-.86-47.55-1.73t-47.27-1.76L248.4,23.87q-22.15-.87-44.32-1.76-20.82-.86-41.65-1.74-19.19-.81-38.36-1.68-17-.78-33.91-1.61-14.41-.7-28.84-1.5-11.49-.64-23-1.39c-5.45-.36-10.89-.75-16.33-1.25a54.33,54.33,0,0,1-9.2-1.15,2.21,2.21,0,0,0,.35.08l-.5-.11a3.57,3.57,0,0,1,.35.1c-1.31,0-1.48,3.69-1.54,4.4s-.07,1.34-.07,2V271.9c0,1.68,0,3.35,0,5,0,.13,0,.26,0,.39v.06a2.77,2.77,0,0,0,.42,1.49,2.08,2.08,0,0,0,1.44.29l1.26,0c1.88-.05,3.76-.11,5.63-.18l9.57-.35,13.24-.5,16.73-.65,19.8-.78,22.68-.9,25.3-1,27.65-1.12,29.86-1.2,31.56-1.28,33.12-1.34,34.41-1.4L319.51,267l36.21-1.48,36.7-1.5,36.95-1.51L466.43,261l36.62-1.5L539.11,258l35.24-1.45,34.16-1.4,32.94-1.36,31.18-1.29,14.91-.61,7.2-.3,3.68-.15"/><path class="cls-3" d="M481.8,32.4l-45.71-1.59-47.27-1.68Q365,28.28,341.27,27.4q-23.62-.87-47.26-1.76-23.1-.87-46.19-1.77Q225.65,23,203.5,22.11q-20.83-.86-41.65-1.74-19.18-.81-38.37-1.68-17-.78-33.9-1.61-14.43-.7-28.84-1.5-11.51-.64-23-1.39c-5.44-.36-10.89-.75-16.33-1.25a54.21,54.21,0,0,1-9.19-1.15,1.87,1.87,0,0,0,.34.08l-.5-.11c.12,0,.24.07.36.1-1.32,0-1.49,3.69-1.54,4.4s-.07,1.34-.07,2V271.9c0,1.68,0,3.35,0,5,0,.13,0,.26,0,.39s0,0,0,.06a2.69,2.69,0,0,0,.42,1.49c.33.33.92.29,1.43.29l1.26,0,5.64-.18,9.56-.35,13.25-.5,16.72-.65,19.8-.78,22.69-.9,25.29-1,27.65-1.12,29.86-1.2L216,271.15l33.11-1.34,34.42-1.4L318.93,267l36.2-1.48,36.71-1.5,36.94-1.51c12.35-.51,39.06-.73,51.42-1.24"/><text class="cls-4" transform="translate(195.34 143.65)">70%</text><text class="cls-5" transform="translate(91.03 177.85)"><tspan class="cls-6">o</tspan><tspan x="11.82" y="0">f the NZ popul</tspan><tspan class="cls-7" x="142.41" y="0">a</tspan><tspan x="153.27" y="0">tion do not ma</tspan><tspan class="cls-8" x="285.45" y="0">k</tspan><tspan x="295.68" y="0">e </tspan><tspan class="cls-6" x="25.42" y="23.68">r</tspan><tspan x="33.43" y="23.68">egular visits to the de</tspan><tspan class="cls-9" x="229.6" y="23.68">n</tspan><tspan class="cls-10" x="241.11" y="23.68">tists.</tspan></text></g></g></svg>